<svg width="130" height="140" xmlns="http://www.w3.org/2000/svg">
 <g>
  <title>Layer 1</title>
  <g id="svg_3">
   <ellipse fill="#663300" stroke="#ff7900" cx="65" cy="74.5" id="svg_2" rx="50" ry="50" stroke-width="25"/>
   <ellipse fill="#663300" stroke="#f49f00" cx="65" cy="65.5" id="svg_1" rx="50" ry="50" stroke-width="25"/>
  </g>
  <path stroke="#3c1e00" id="svg_6" d="m34.65729,55.45646c0.00187,-0.73397 0.64144,-5.2341 1.42178,-10.00035c2.43322,-14.86204 2.46901,-14.92763 5.55835,-10.19077l1.82778,2.80253l5.34534,-2.77185c7.07021,-3.66626 15.5066,-5.02253 23.26162,-3.7396c3.29192,0.54461 6.78489,1.42979 7.76216,1.96707c1.94027,1.06666 1.81589,1.98269 -1.27653,9.40184c-1.69489,4.06631 -1.85757,4.1822 -4.7853,3.40909c-4.98309,-1.31579 -13.09699,-0.90134 -17.01442,0.86908l-3.67297,1.66l2.57815,2.76432c1.41799,1.52042 2.22127,2.99095 1.78508,3.26786c-0.43621,0.27693 -5.74332,0.81667 -11.79357,1.19937c-9.07742,0.57424 -10.99995,0.46263 -10.99747,-0.63858l0,-0.00001zm46.74162,40.97768l-3.93227,-5.35011l3.58035,-3.55648c3.685,-3.66039 6.34267,-8.79952 7.51353,-14.529l0.66817,-3.26956l-3.8538,0.633c-2.11959,0.3482 -3.86684,0.30296 -3.88277,-0.10049c-0.07442,-1.88362 10.00312,-20.45182 10.98267,-20.23596c1.5402,0.33939 17.16638,14.2422 17.16638,15.27307c0,0.4601 -1.64226,1.10633 -3.64943,1.43603l-3.64944,0.59944l-0.36018,6.3928c-0.46197,8.19902 -4.66779,17.66181 -10.52347,23.67702c-2.34532,2.40925 -4.68345,4.38042 -5.19585,4.38042c-0.5124,0 -2.70115,-2.40759 -4.86389,-5.35017l0,-0.00001zm-35.49659,14.99598c0,-0.59157 0.61778,-2.30276 1.37284,-3.80267c1.36993,-2.72131 1.362,-2.73452 -3.74518,-6.2179c-7.99054,-5.44996 -13.92992,-15.12333 -15.79812,-25.73018l-0.61247,-3.47738l4.36694,-0.61484c9.00196,-1.26747 9.08416,-1.22916 10.88703,5.07337c1.21657,4.25295 2.71284,6.80166 5.93827,10.11495c2.37154,2.43617 4.64324,4.21899 5.04824,3.96188c0.40499,-0.25712 0.99117,-1.77636 1.30264,-3.37612c0.31147,-1.59976 0.96094,-2.90867 1.44328,-2.90867c1.10737,0 11.53549,16.8904 11.70105,18.95215c0.11056,1.37702 -5.5266,3.76122 -20.21792,8.5511c-0.93679,0.30541 -1.6866,0.07176 -1.6866,-0.52569l0,0z" fill="#3c1e00"/>
  <path stroke="#3c1e00" id="svg_5" d="m34.65729,51.05269c0.00188,-0.73397 0.64145,-5.23411 1.42178,-10.00035c2.43322,-14.86204 2.46901,-14.92762 5.55835,-10.19076l1.82778,2.80253l5.34534,-2.77185c7.07021,-3.66626 15.5066,-5.02254 23.26162,-3.7396c3.29192,0.54461 6.78489,1.4298 7.76216,1.96707c1.94027,1.06666 1.81589,1.9827 -1.27653,9.40185c-1.69489,4.0663 -1.85757,4.18219 -4.7853,3.40909c-4.98309,-1.31579 -13.09699,-0.90134 -17.01442,0.86908l-3.67297,1.66l2.57815,2.76433c1.41799,1.52042 2.22127,2.99094 1.78508,3.26786c-0.43621,0.27692 -5.74332,0.81666 -11.79357,1.19937c-9.07742,0.57423 -10.99995,0.46263 -10.99748,-0.63859l0,0zm46.74162,40.97768l-3.93226,-5.35012l3.58035,-3.55648c3.685,-3.66038 6.34267,-8.79952 7.51353,-14.52899l0.66817,-3.26957l-3.8538,0.63301c-2.11959,0.3482 -3.86684,0.30296 -3.88278,-0.1005c-0.07442,-1.88362 10.00312,-20.45182 10.98267,-20.23596c1.5402,0.33939 17.16638,14.2422 17.16638,15.27307c0,0.4601 -1.64226,1.10633 -3.64943,1.43603l-3.64944,0.59944l-0.36018,6.3928c-0.46197,8.19902 -4.66779,17.66181 -10.52347,23.67702c-2.34532,2.40924 -4.68345,4.38042 -5.19585,4.38042c-0.51241,0 -2.70115,-2.40759 -4.8639,-5.35017l0,0zm-35.49659,14.99598c0,-0.59157 0.61778,-2.30276 1.37284,-3.80267c1.36992,-2.72131 1.36199,-2.73452 -3.74518,-6.21789c-7.99054,-5.44997 -13.92993,-15.12333 -15.79812,-25.73018l-0.61247,-3.47738l4.36694,-0.61484c9.00195,-1.26747 9.08416,-1.22916 10.88702,5.07337c1.21657,4.25295 2.71285,6.80166 5.93827,10.11495c2.37154,2.43617 4.64324,4.21899 5.04824,3.96187c0.40498,-0.25711 0.99117,-1.77636 1.30264,-3.37611c0.31147,-1.59976 0.96094,-2.90867 1.44327,-2.90867c1.10737,0 11.5355,16.8904 11.70105,18.95214c0.11056,1.37702 -5.5266,3.76122 -20.21792,8.5511c-0.93679,0.30542 -1.6866,0.07176 -1.6866,-0.52569l0,0z" fill="#f3f3f3"/>
 </g>

</svg>