<svg width="130" height="140" xmlns="http://www.w3.org/2000/svg">
 <g>
  <title>Layer 1</title>
  <g id="svg_3">
   <ellipse stroke-width="25" ry="50" rx="50" id="svg_2" cy="74.25" cx="65" stroke="#e39c00" fill="#663300"/>
   <ellipse stroke-width="25" ry="50" rx="50" id="svg_1" cy="65.75" cx="65" stroke="#ffc124" fill="#663300"/>
  </g>
  <path stroke="#3c1e00" id="svg_5" d="m104.35096,69.09415l-10.20087,-9.5191l0,-22.73455l-8.74502,0l0,14.57398l-20.40507,-19.04131l-39.35096,36.72098l9.368,-0.20829l0,37.12512l59.54948,0l0,-36.91683l9.78444,0zm-39.35096,31.60703l-19.43229,0l0,-21.76151l19.43229,0l0,21.76151zm18.87927,-9.32636l-12.76941,0l0,-12.56571l12.76941,0l0,12.56571z" stroke-width="2" fill="#3c1e00"/>
  <path stroke="#3c1e00" id="svg_4" d="m104.35096,63.24049l-10.20087,-9.5191l0,-22.73455l-8.74503,0l0,14.57399l-20.40507,-19.04131l-39.35096,36.72098l9.36801,-0.20829l0,37.12512l59.54948,0l0,-36.91683l9.78444,0zm-39.35096,31.60703l-19.43229,0l0,-21.7615l19.43229,0l0,21.7615zm18.87927,-9.32636l-12.76941,0l0,-12.56571l12.76941,0l0,12.56571z" stroke-width="2" fill="#f3f3f3"/>
 </g>

</svg>