<svg width="200" height="200" xmlns="http://www.w3.org/2000/svg">
 <g>
  <title>Layer 1</title>
  <g id="svg_16">
   <rect stroke="#d3fbfeff" fill="none" x="72" y="8.57143" width="56" height="182.85715" id="svg_1" stroke-width="3.5"/>
   <g id="svg_15">
    <rect fill="none" stroke-width="3.5" x="128.00001" y="72" width="64.66666" height="56" id="svg_13" stroke="#d3fbfeff"/>
    <rect fill="none" stroke-width="3.5" x="7.33334" y="72" width="64.66666" height="56" id="svg_14" stroke="#d3fbfeff"/>
   </g>
  </g>
  <path fill="#00ff00" stroke-width="0" d="m138.26087,87.53623c0,3.44177 -17.12998,6.23188 -38.26087,6.23188m38.26087,-6.23188l0,0c0,3.44177 -17.12998,6.23188 -38.26087,6.23188c-21.13089,0 -38.26086,-2.7901 -38.26086,-6.23188m0,0l0,0c0,-3.44177 17.12997,-6.23189 38.26086,-6.23189c21.13089,0 38.26087,2.79012 38.26087,6.23189l0,24.92755c0,3.44177 -17.12998,6.23187 -38.26087,6.23187c-21.13089,0 -38.26086,-2.7901 -38.26086,-6.23187l0,-24.92755z" id="svg_4" transform="rotate(180 100 206.563)"/>
  <g id="svg_12">
   <path fill="#ffdc19" stroke-width="0" d="m138.29661,-19.11644c0,3.44177 -17.12998,6.23189 -38.26087,6.23189m38.26087,-6.23189l0,0c0,3.44177 -17.12998,6.23189 -38.26087,6.23189c-21.13089,0 -38.26086,-2.7901 -38.26086,-6.23189m0,0l0,0c0,-3.44177 17.12997,-6.23188 38.26086,-6.23188c21.1309,0 38.26087,2.79011 38.26087,6.23188l0,24.92755c0,3.44177 -17.12998,6.23187 -38.26087,6.23187c-21.13089,0 -38.26086,-2.7901 -38.26086,-6.23187l0,-24.92755z" id="svg_3"/>
   <path transform="rotate(180 100.036 206.653)" fill="#ffdc19" stroke-width="0" d="m138.29661,194.18937c0,3.44177 -17.12998,6.23189 -38.26087,6.23189m38.26087,-6.23189l0,0c0,3.44177 -17.12998,6.23189 -38.26087,6.23189c-21.13089,0 -38.26086,-2.7901 -38.26086,-6.23189m0,0l0,0c0,-3.44177 17.12997,-6.23188 38.26086,-6.23188c21.1309,0 38.26087,2.79011 38.26087,6.23188l0,24.92755c0,3.44177 -17.12998,6.23187 -38.26087,6.23187c-21.13089,0 -38.26086,-2.7901 -38.26086,-6.23187l0,-24.92755z" id="svg_9"/>
   <path transform="rotate(90 206.037 99.8786)" fill="#ffdc19" stroke-width="0" d="m244.29804,87.41486c0,3.44177 -17.12998,6.23189 -38.26087,6.23189m38.26087,-6.23189l0,0c0,3.44177 -17.12998,6.23189 -38.26087,6.23189c-21.13089,0 -38.26086,-2.7901 -38.26086,-6.23189m0,0l0,0c0,-3.44177 17.12997,-6.23188 38.26086,-6.23188c21.1309,0 38.26087,2.79011 38.26087,6.23188l0,24.92755c0,3.44177 -17.12998,6.23187 -38.26087,6.23187c-21.13089,0 -38.26086,-2.7901 -38.26086,-6.23187l0,-24.92755z" id="svg_10"/>
   <path transform="rotate(-90 -6.03673 99.8786)" fill="#ffdc19" stroke-width="0" d="m32.22414,87.41486c0,3.44177 -17.12998,6.23189 -38.26087,6.23189m38.26087,-6.23189l0,0c0,3.44177 -17.12998,6.23189 -38.26087,6.23189c-21.13089,0 -38.26086,-2.7901 -38.26086,-6.23189m0,0l0,0c0,-3.44177 17.12997,-6.23188 38.26086,-6.23188c21.1309,0 38.26087,2.79011 38.26087,6.23188l0,24.92755c0,3.44177 -17.12998,6.23187 -38.26087,6.23187c-21.13089,0 -38.26086,-2.7901 -38.26086,-6.23187l0,-24.92755z" id="svg_11"/>
  </g>
 </g>

</svg>