<svg width="200.00000000000003" height="200.00000000000003" xmlns="http://www.w3.org/2000/svg">
 <g>
  <title>Layer 1</title>
  <rect stroke-width="3.5" id="svg_1" height="182.85715" width="56" y="8.57143" x="72" fill="none" stroke="#d3fbfeff"/>
  <g id="svg_2">
   <path id="svg_3" d="m138.26087,-18.99507c0,3.44177 -17.12998,6.23189 -38.26087,6.23189m38.26087,-6.23189l0,0c0,3.44177 -17.12998,6.23189 -38.26087,6.23189c-21.13089,0 -38.26086,-2.7901 -38.26086,-6.23189m0,0l0,0c0,-3.44177 17.12997,-6.23188 38.26086,-6.23188c21.1309,0 38.26087,2.79011 38.26087,6.23188l0,24.92755c0,3.44177 -17.12998,6.23187 -38.26087,6.23187c-21.13089,0 -38.26086,-2.7901 -38.26086,-6.23187l0,-24.92755z" stroke-width="0" fill="#ff4a06"/>
   <path transform="rotate(180 100 206.563)" id="svg_4" d="m138.26087,194.09938c0,3.44177 -17.12998,6.23188 -38.26087,6.23188m38.26087,-6.23188l0,0c0,3.44177 -17.12998,6.23188 -38.26087,6.23188c-21.13089,0 -38.26086,-2.7901 -38.26086,-6.23188m0,0l0,0c0,-3.44177 17.12997,-6.23189 38.26086,-6.23189c21.13089,0 38.26087,2.79012 38.26087,6.23189l0,24.92755c0,3.44177 -17.12998,6.23187 -38.26087,6.23187c-21.13089,0 -38.26086,-2.7901 -38.26086,-6.23187l0,-24.92755z" stroke-width="0" fill="#ff4a06"/>
  </g>
 </g>

</svg>