<svg width="200" height="1100" xmlns="http://www.w3.org/2000/svg">
 <g>
  <title>Layer 1</title>
  <rect fill="none" x="69.13794" y="184.5909" width="61.72414" height="730.81818" id="svg_1" stroke-width="4" stroke="#d3fbfeff"/>
  <g id="svg_33">
   <g id="svg_34">
    <title>Layer 1</title>
    <g id="svg_30">
     <path stroke="#1c5463" stroke-width="0" id="svg_32" d="m177.25995,-17.29501c0,14.35317 -11.8379,25.9887 -26.44069,25.9887m26.44069,-25.9887l0,0c0,14.35317 -11.8379,25.9887 -26.44069,25.9887c-14.60278,0 -26.44067,-11.6355 -26.44067,-25.9887m0,0l0,0c0,-14.35314 11.83789,-25.98868 26.44067,-25.98868c14.60279,0 26.44069,11.63554 26.44069,25.98868l0,103.95484c0,14.35314 -11.8379,25.98865 -26.44069,25.98865c-14.60278,0 -26.44067,-11.6355 -26.44067,-25.98865l0,-103.95484z" fill="#1c5463" transform="rotate(90 150.818 34.6824)"/>
     <path fill="#1c5463" d="m175.32302,29.34324c0,1.53714 -13.97181,2.78325 -31.2069,2.78325m31.2069,-2.78325l0,0c0,1.53714 -13.97181,2.78325 -31.2069,2.78325c-17.23509,0 -31.20688,-1.2461 -31.20688,-2.78325m0,0l0,0c0,-1.53715 13.97179,-2.78325 31.20688,-2.78325c17.23509,0 31.2069,1.2461 31.2069,2.78325l0,11.13301c0,1.53715 -13.97181,2.78324 -31.2069,2.78324c-17.23509,0 -31.20688,-1.24609 -31.20688,-2.78324l0,-11.13301z" id="svg_31" stroke-width="0" stroke="#1c5463" transform="rotate(90 144.115 34.9097)"/>
    </g>
    <g id="svg_23" transform="rotate(180 178.845 157.343)">
     <g id="svg_27">
      <line fill="none" stroke="#bd7332" x1="146.60716" y1="172.64982" x2="212.11877" y2="172.64982" id="svg_29" stroke-width="8"/>
      <line fill="none" stroke="#edb45e" x1="145.57267" y1="169.82551" x2="211.08429" y2="169.82551" id="svg_28" stroke-width="8"/>
     </g>
     <g id="svg_24">
      <line fill="none" stroke="#bd7332" x1="146.60716" y1="144.89472" x2="212.11877" y2="144.89472" id="svg_26" stroke-width="8"/>
      <line fill="none" stroke="#edb45e" x1="146.60716" y1="142.03757" x2="212.11877" y2="142.03757" id="svg_25" stroke-width="8"/>
     </g>
    </g>
    <g id="svg_5" transform="rotate(180 99.5258 98.6204)">
     <g id="svg_18">
      <path id="svg_22" d="m139.11848,44.63282c0,5.2272 -17.72608,9.46468 -39.59231,9.46468m39.59231,-9.46468l0,0c0,5.2272 -17.72608,9.46468 -39.59231,9.46468c-21.86621,0 -39.59229,-4.23747 -39.59229,-9.46468m0,0l0,0c0,-5.22719 17.72607,-9.46468 39.59229,-9.46468c21.86623,0 39.59231,4.23749 39.59231,9.46468l0,37.85875c0,5.22719 -17.72608,9.46467 -39.59231,9.46467c-21.86621,0 -39.59229,-4.23747 -39.59229,-9.46467l0,-37.85875z" stroke-width="0" fill="#bd7332" stroke="#000"/>
      <g id="svg_19">
       <rect stroke-width="0" id="svg_21" height="45.98509" width="114.59684" y="18.63677" x="42.30165" fill="#bd7332" stroke="#000"/>
       <path id="svg_20" d="m42.00068,18.68151l21.57206,-10.21591l71.90688,0l21.57205,10.21591l-115.05099,0z" stroke-width="0" fill="#bd7332" stroke="#000"/>
      </g>
     </g>
     <path stroke="#000" stroke-width="0" id="svg_17" d="m126.55226,82.0164c0,12.13193 -11.8379,21.9668 -26.44068,21.9668m26.44068,-21.9668l0,0c0,12.13193 -11.8379,21.9668 -26.44068,21.9668c-14.60278,0 -26.44067,-9.83485 -26.44067,-21.9668m0,0l0,0c0,-12.13192 11.83789,-21.9668 26.44067,-21.9668c14.60279,0 26.44068,9.83488 26.44068,21.9668l0,87.86725c0,12.13192 -11.8379,21.96677 -26.44068,21.96677c-14.60278,0 -26.44067,-9.83485 -26.44067,-21.96677l0,-87.86725z" fill="#58aeb6"/>
     <g id="svg_14">
      <path fill="#1c5463" d="m130.73307,96.50824c0,1.14266 -13.97181,2.06897 -31.2069,2.06897m31.2069,-2.06897l0,0c0,1.14266 -13.97181,2.06897 -31.2069,2.06897c-17.23509,0 -31.20688,-0.92631 -31.20688,-2.06897m0,0l0,0c0,-1.14265 13.97179,-2.06896 31.20688,-2.06896c17.23509,0 31.2069,0.92631 31.2069,2.06896l0,8.27587c0,1.14265 -13.97181,2.06896 -31.2069,2.06896c-17.23509,0 -31.20688,-0.92631 -31.20688,-2.06896l0,-8.27587z" id="svg_16" stroke-width="0" stroke="#000"/>
      <path fill="#286e87" d="m130.73307,93.70122c0,1.14266 -13.9718,2.06897 -31.2069,2.06897m31.2069,-2.06897l0,0c0,1.14266 -13.9718,2.06897 -31.2069,2.06897c-17.23509,0 -31.20689,-0.92631 -31.20689,-2.06897m0,0l0,0c0,-1.14266 13.9718,-2.06896 31.20689,-2.06896c17.23509,0 31.2069,0.92631 31.2069,2.06896l0,8.27586c0,1.14266 -13.9718,2.06896 -31.2069,2.06896c-17.23509,0 -31.20689,-0.9263 -31.20689,-2.06896l0,-8.27586z" id="svg_15" stroke-width="0" stroke="#000"/>
     </g>
     <g id="svg_11">
      <path fill="#1c5463" d="m130.73307,115.17072c0,1.53714 -13.97181,2.78325 -31.2069,2.78325m31.2069,-2.78325l0,0c0,1.53714 -13.97181,2.78325 -31.2069,2.78325c-17.23509,0 -31.20688,-1.2461 -31.20688,-2.78325m0,0l0,0c0,-1.53715 13.97179,-2.78325 31.20688,-2.78325c17.23509,0 31.2069,1.2461 31.2069,2.78325l0,11.13301c0,1.53715 -13.97181,2.78324 -31.2069,2.78324c-17.23509,0 -31.20688,-1.24609 -31.20688,-2.78324l0,-11.13301z" id="svg_13" stroke-width="0" stroke="#000"/>
      <path fill="#286e87" d="m130.73307,112.31874c0,1.53714 -13.97181,2.78324 -31.2069,2.78324m31.2069,-2.78324l0,0c0,1.53714 -13.97181,2.78324 -31.2069,2.78324c-17.23509,0 -31.20688,-1.24609 -31.20688,-2.78324m0,0l0,0c0,-1.53715 13.97179,-2.78326 31.20688,-2.78326c17.23509,0 31.2069,1.24611 31.2069,2.78326l0,11.133c0,1.53715 -13.97181,2.78324 -31.2069,2.78324c-17.23509,0 -31.20688,-1.24609 -31.20688,-2.78324l0,-11.133z" id="svg_12" stroke-width="0" stroke="#000"/>
     </g>
     <g id="svg_6">
      <path id="svg_10" d="m139.11848,41.55705c0,5.2272 -17.72608,9.46468 -39.59231,9.46468m39.59231,-9.46468l0,0c0,5.2272 -17.72608,9.46468 -39.59231,9.46468c-21.86621,0 -39.59229,-4.23747 -39.59229,-9.46468m0,0l0,0c0,-5.22719 17.72607,-9.46468 39.59229,-9.46468c21.86623,0 39.59231,4.23749 39.59231,9.46468l0,37.85875c0,5.22719 -17.72608,9.46467 -39.59231,9.46467c-21.86621,0 -39.59229,-4.23747 -39.59229,-9.46467l0,-37.85875z" stroke-width="0" fill="#edb45e" stroke="#000"/>
      <g id="svg_7">
       <rect stroke-width="0" id="svg_9" height="45.98509" width="114.59684" y="15.561" x="42.30165" fill="#f4c271" stroke="#000"/>
       <path id="svg_8" d="m42.00068,15.60574l21.57206,-10.21591l71.90688,0l21.57205,10.21591l-115.05099,0z" stroke-width="0" fill="#ffd896" stroke="#000"/>
      </g>
     </g>
    </g>
    <g id="svg_2">
     <path stroke="#000" stroke-width="0" id="svg_4" d="m177.25995,-20.99871c0,14.35317 -11.8379,25.9887 -26.44069,25.9887m26.44069,-25.9887l0,0c0,14.35317 -11.8379,25.9887 -26.44069,25.9887c-14.60278,0 -26.44067,-11.6355 -26.44067,-25.9887m0,0l0,0c0,-14.35314 11.83789,-25.98868 26.44067,-25.98868c14.60279,0 26.44069,11.63554 26.44069,25.98868l0,103.95484c0,14.35314 -11.8379,25.98865 -26.44069,25.98865c-14.60278,0 -26.44067,-11.6355 -26.44067,-25.98865l0,-103.95484z" fill="#58aeb6" transform="rotate(90 150.817 30.979)"/>
     <path fill="#286e87" d="m175.32302,25.63954c0,1.53714 -13.97181,2.78325 -31.2069,2.78325m31.2069,-2.78325l0,0c0,1.53714 -13.97181,2.78325 -31.2069,2.78325c-17.23509,0 -31.20688,-1.2461 -31.20688,-2.78325m0,0l0,0c0,-1.53715 13.97179,-2.78325 31.20688,-2.78325c17.23509,0 31.2069,1.2461 31.2069,2.78325l0,11.13301c0,1.53715 -13.97181,2.78324 -31.2069,2.78324c-17.23509,0 -31.20688,-1.24609 -31.20688,-2.78324l0,-11.13301z" id="svg_3" stroke-width="0" stroke="#000" transform="rotate(90 144.115 31.206)"/>
    </g>
   </g>
  </g>
  <g id="svg_35">
   <g id="svg_36">
    <title>Layer 1</title>
    <g id="svg_67">
     <line stroke-width="8" id="svg_69" y2="956.27029" x2="216.07963" y1="956.27029" x1="150.56802" stroke="#bd7332" fill="none"/>
     <line stroke-width="8" id="svg_68" y2="953.44598" x2="215.04515" y1="953.44598" x1="149.53353" stroke="#edb45e" fill="none"/>
    </g>
    <g id="svg_64">
     <line stroke-width="8" id="svg_66" y2="928.51519" x2="216.07963" y1="928.51519" x1="150.56802" stroke="#bd7332" fill="none"/>
     <line stroke-width="8" id="svg_65" y2="925.65804" x2="216.07963" y1="925.65804" x1="150.56802" stroke="#edb45e" fill="none"/>
    </g>
    <g id="svg_59">
     <path stroke="#000" fill="#bd7332" stroke-width="0" d="m139.1178,945.45463c0,5.2272 -17.72608,9.46468 -39.59231,9.46468m39.59231,-9.46468l0,0c0,5.2272 -17.72608,9.46468 -39.59231,9.46468c-21.86621,0 -39.59229,-4.23747 -39.59229,-9.46468m0,0l0,0c0,-5.22719 17.72607,-9.46468 39.59229,-9.46468c21.86623,0 39.59231,4.23749 39.59231,9.46468l0,37.85875c0,5.22719 -17.72608,9.46467 -39.59231,9.46467c-21.86621,0 -39.59229,-4.23747 -39.59229,-9.46467l0,-37.85875z" id="svg_63"/>
     <g id="svg_60">
      <rect stroke="#000" fill="#bd7332" x="42.30097" y="919.45858" width="114.59684" height="45.98509" id="svg_62" stroke-width="0"/>
      <path stroke="#000" fill="#bd7332" stroke-width="0" d="m42,919.50332l21.57206,-10.21591l71.90688,0l21.57205,10.21591l-115.05099,0z" id="svg_61"/>
     </g>
    </g>
    <g id="svg_52">
     <g id="svg_56">
      <path fill="#12595f" d="m126.55158,986.0084c0,12.13193 -11.8379,21.9668 -26.44068,21.9668m26.44068,-21.9668l0,0c0,12.13193 -11.8379,21.9668 -26.44068,21.9668c-14.60278,0 -26.44067,-9.83485 -26.44067,-21.9668m0,0l0,0c0,-12.13192 11.83789,-21.9668 26.44067,-21.9668c14.60279,0 26.44068,9.83488 26.44068,21.9668l0,87.86725c0,12.13192 -11.8379,21.96677 -26.44068,21.96677c-14.60278,0 -26.44067,-9.83485 -26.44067,-21.96677l0,-87.86725z" id="svg_58" stroke-width="0" stroke="#000"/>
      <path fill="#12595f" d="m178.74075,1017.17708c0,14.35317 -11.8379,25.9887 -26.44069,25.9887m26.44069,-25.9887l0,0c0,14.35317 -11.8379,25.9887 -26.44069,25.9887c-14.60278,0 -26.44067,-11.6355 -26.44067,-25.9887m0,0l0,0c0,-14.35314 11.83789,-25.98868 26.44067,-25.98868c14.60279,0 26.44069,11.63554 26.44069,25.98868l0,103.95484c0,14.35314 -11.8379,25.98865 -26.44069,25.98865c-14.60278,0 -26.44067,-11.6355 -26.44067,-25.98865l0,-103.95484z" id="svg_57" stroke-width="0" stroke="#000" transform="rotate(90 152.301 1069.15)"/>
     </g>
     <g id="svg_53">
      <path fill="#58aeb6" d="m126.55158,982.83821c0,12.13193 -11.8379,21.9668 -26.44068,21.9668m26.44068,-21.9668l0,0c0,12.13193 -11.8379,21.9668 -26.44068,21.9668c-14.60278,0 -26.44067,-9.83485 -26.44067,-21.9668m0,0l0,0c0,-12.13192 11.83789,-21.9668 26.44067,-21.9668c14.60279,0 26.44068,9.83488 26.44068,21.9668l0,87.86725c0,12.13192 -11.8379,21.96677 -26.44068,21.96677c-14.60278,0 -26.44067,-9.83485 -26.44067,-21.96677l0,-87.86725z" id="svg_55" stroke-width="0" stroke="#000"/>
      <path fill="#58aeb6" d="m178.74075,1014.00689c0,14.35317 -11.8379,25.9887 -26.44069,25.9887m26.44069,-25.9887l0,0c0,14.35317 -11.8379,25.9887 -26.44069,25.9887c-14.60278,0 -26.44067,-11.6355 -26.44067,-25.9887m0,0l0,0c0,-14.35314 11.83789,-25.98868 26.44067,-25.98868c14.60279,0 26.44069,11.63554 26.44069,25.98868l0,103.95484c0,14.35314 -11.8379,25.98865 -26.44069,25.98865c-14.60278,0 -26.44067,-11.6355 -26.44067,-25.98865l0,-103.95484z" id="svg_54" stroke-width="0" stroke="#000" transform="rotate(90 152.3 1065.98)"/>
     </g>
    </g>
    <g id="svg_49">
     <path stroke="#000" stroke-width="0" id="svg_51" d="m130.73239,997.33005c0,1.14266 -13.97181,2.06897 -31.2069,2.06897m31.2069,-2.06897l0,0c0,1.14266 -13.97181,2.06897 -31.2069,2.06897c-17.23509,0 -31.20688,-0.92631 -31.20688,-2.06897m0,0l0,0c0,-1.14265 13.97179,-2.06896 31.20688,-2.06896c17.23509,0 31.2069,0.92631 31.2069,2.06896l0,8.27587c0,1.14265 -13.97181,2.06896 -31.2069,2.06896c-17.23509,0 -31.20688,-0.92631 -31.20688,-2.06896l0,-8.27587z" fill="#1c5463"/>
     <path stroke="#000" stroke-width="0" id="svg_50" d="m130.73239,994.52303c0,1.14266 -13.9718,2.06897 -31.2069,2.06897m31.2069,-2.06897l0,0c0,1.14266 -13.9718,2.06897 -31.2069,2.06897c-17.23509,0 -31.20689,-0.92631 -31.20689,-2.06897m0,0l0,0c0,-1.14266 13.9718,-2.06896 31.20689,-2.06896c17.23509,0 31.2069,0.92631 31.2069,2.06896l0,8.27586c0,1.14266 -13.9718,2.06896 -31.2069,2.06896c-17.23509,0 -31.20689,-0.9263 -31.20689,-2.06896l0,-8.27586z" fill="#286e87"/>
    </g>
    <g id="svg_46">
     <path stroke="#000" stroke-width="0" id="svg_48" d="m130.73239,1015.99253c0,1.53714 -13.97181,2.78325 -31.2069,2.78325m31.2069,-2.78325l0,0c0,1.53714 -13.97181,2.78325 -31.2069,2.78325c-17.23509,0 -31.20688,-1.2461 -31.20688,-2.78325m0,0l0,0c0,-1.53715 13.97179,-2.78325 31.20688,-2.78325c17.23509,0 31.2069,1.2461 31.2069,2.78325l0,11.13301c0,1.53715 -13.97181,2.78324 -31.2069,2.78324c-17.23509,0 -31.20688,-1.24609 -31.20688,-2.78324l0,-11.13301z" fill="#1c5463"/>
     <path stroke="#000" stroke-width="0" id="svg_47" d="m130.73239,1013.14055c0,1.53714 -13.97181,2.78324 -31.2069,2.78324m31.2069,-2.78324l0,0c0,1.53714 -13.97181,2.78324 -31.2069,2.78324c-17.23509,0 -31.20688,-1.24609 -31.20688,-2.78324m0,0l0,0c0,-1.53715 13.97179,-2.78326 31.20688,-2.78326c17.23509,0 31.2069,1.24611 31.2069,2.78326l0,11.133c0,1.53715 -13.97181,2.78324 -31.2069,2.78324c-17.23509,0 -31.20688,-1.24609 -31.20688,-2.78324l0,-11.133z" fill="#286e87"/>
    </g>
    <g id="svg_43">
     <path stroke="#000" stroke-width="0" id="svg_45" d="m176.80382,1063.22579c0,1.53714 -13.97181,2.78325 -31.2069,2.78325m31.2069,-2.78325l0,0c0,1.53714 -13.97181,2.78325 -31.2069,2.78325c-17.23509,0 -31.20688,-1.2461 -31.20688,-2.78325m0,0l0,0c0,-1.53715 13.97179,-2.78325 31.20688,-2.78325c17.23509,0 31.2069,1.2461 31.2069,2.78325l0,11.13301c0,1.53715 -13.97181,2.78324 -31.2069,2.78324c-17.23509,0 -31.20688,-1.24609 -31.20688,-2.78324l0,-11.13301z" fill="#1c5463" transform="rotate(90 145.597 1068.79)"/>
     <path stroke="#000" stroke-width="0" id="svg_44" d="m176.80382,1060.64514c0,1.53714 -13.97181,2.78325 -31.2069,2.78325m31.2069,-2.78325l0,0c0,1.53714 -13.97181,2.78325 -31.2069,2.78325c-17.23509,0 -31.20688,-1.2461 -31.20688,-2.78325m0,0l0,0c0,-1.53715 13.97179,-2.78325 31.20688,-2.78325c17.23509,0 31.2069,1.2461 31.2069,2.78325l0,11.13301c0,1.53715 -13.97181,2.78324 -31.2069,2.78324c-17.23509,0 -31.20688,-1.24609 -31.20688,-2.78324l0,-11.13301z" fill="#286e87" transform="rotate(90 145.598 1066.21)"/>
    </g>
    <g id="svg_38">
     <path stroke="#000" fill="#edb45e" stroke-width="0" d="m139.1178,942.37886c0,5.2272 -17.72608,9.46468 -39.59231,9.46468m39.59231,-9.46468l0,0c0,5.2272 -17.72608,9.46468 -39.59231,9.46468c-21.86621,0 -39.59229,-4.23747 -39.59229,-9.46468m0,0l0,0c0,-5.22719 17.72607,-9.46468 39.59229,-9.46468c21.86623,0 39.59231,4.23749 39.59231,9.46468l0,37.85875c0,5.22719 -17.72608,9.46467 -39.59231,9.46467c-21.86621,0 -39.59229,-4.23747 -39.59229,-9.46467l0,-37.85875z" id="svg_42"/>
     <g id="svg_39">
      <rect stroke="#000" fill="#f4c271" x="42.30097" y="916.38281" width="114.59684" height="45.98509" id="svg_41" stroke-width="0"/>
      <path stroke="#000" fill="#ffd896" stroke-width="0" d="m42,916.42755l21.57206,-10.21591l71.90688,0l21.57205,10.21591l-115.05099,0z" id="svg_40"/>
     </g>
    </g>
   </g>
  </g>
 </g>

</svg>