<svg width="200" height="200" xmlns="http://www.w3.org/2000/svg">
 <g>
  <title>Layer 1</title>
  <g id="svg_34">
   <line stroke-width="8" id="svg_32" y2="50.05865" x2="216.55413" y1="50.05865" x1="151.04252" stroke="#bd7332" fill="none"/>
   <line stroke-width="8" id="svg_30" y2="47.23434" x2="215.51965" y1="47.23434" x1="150.00803" stroke="#edb45e" fill="none"/>
  </g>
  <g id="svg_33">
   <line stroke-width="8" id="svg_31" y2="22.30355" x2="216.55413" y1="22.30355" x1="151.04252" stroke="#bd7332" fill="none"/>
   <line stroke-width="8" id="svg_28" y2="19.4464" x2="216.55413" y1="19.4464" x1="151.04252" stroke="#edb45e" fill="none"/>
  </g>
  <g id="svg_16">
   <path stroke="#000" fill="#bd7332" stroke-width="0" d="m139.5923,39.24299c0,5.2272 -17.72608,9.46468 -39.59231,9.46468m39.59231,-9.46468l0,0c0,5.2272 -17.72608,9.46468 -39.59231,9.46468c-21.86621,0 -39.59229,-4.23747 -39.59229,-9.46468m0,0l0,0c0,-5.22719 17.72607,-9.46468 39.59229,-9.46468c21.86623,0 39.59231,4.23749 39.59231,9.46468l0,37.85875c0,5.22719 -17.72608,9.46467 -39.59231,9.46467c-21.86621,0 -39.59229,-4.23747 -39.59229,-9.46467l0,-37.85875z" id="svg_12"/>
   <g id="svg_15">
    <rect stroke="#000" fill="#bd7332" x="42.77547" y="13.24694" width="114.59684" height="45.98509" id="svg_13" stroke-width="0"/>
    <path stroke="#000" fill="#bd7332" stroke-width="0" d="m42.4745,13.29168l21.57206,-10.21591l71.90688,0l21.57205,10.21591l-115.05099,0z" id="svg_14"/>
   </g>
  </g>
  <g id="svg_27">
   <g id="svg_19">
    <path fill="#12595f" d="m127.02608,79.79676c0,12.13193 -11.8379,21.9668 -26.44068,21.9668m26.44068,-21.9668l0,0c0,12.13193 -11.8379,21.9668 -26.44068,21.9668c-14.60278,0 -26.44067,-9.83485 -26.44067,-21.9668m0,0l0,0c0,-12.13192 11.83789,-21.9668 26.44067,-21.9668c14.60279,0 26.44068,9.83488 26.44068,21.9668l0,87.86725c0,12.13192 -11.8379,21.96677 -26.44068,21.96677c-14.60278,0 -26.44067,-9.83485 -26.44067,-21.96677l0,-87.86725z" id="svg_17" stroke-width="0" stroke="#000"/>
    <path transform="rotate(90 152.775 162.943)" fill="#12595f" d="m179.21525,110.96544c0,14.35317 -11.8379,25.9887 -26.44069,25.9887m26.44069,-25.9887l0,0c0,14.35317 -11.8379,25.9887 -26.44069,25.9887c-14.60278,0 -26.44067,-11.6355 -26.44067,-25.9887m0,0l0,0c0,-14.35314 11.83789,-25.98868 26.44067,-25.98868c14.60279,0 26.44069,11.63554 26.44069,25.98868l0,103.95484c0,14.35314 -11.8379,25.98865 -26.44069,25.98865c-14.60278,0 -26.44067,-11.6355 -26.44067,-25.98865l0,-103.95484z" id="svg_18" stroke-width="0" stroke="#000"/>
   </g>
   <g id="svg_11">
    <path fill="#58aeb6" d="m127.02608,76.62657c0,12.13193 -11.8379,21.9668 -26.44068,21.9668m26.44068,-21.9668l0,0c0,12.13193 -11.8379,21.9668 -26.44068,21.9668c-14.60278,0 -26.44067,-9.83485 -26.44067,-21.9668m0,0l0,0c0,-12.13192 11.83789,-21.9668 26.44067,-21.9668c14.60279,0 26.44068,9.83488 26.44068,21.9668l0,87.86725c0,12.13192 -11.8379,21.96677 -26.44068,21.96677c-14.60278,0 -26.44067,-9.83485 -26.44067,-21.96677l0,-87.86725z" id="svg_7" stroke-width="0" stroke="#000"/>
    <path transform="rotate(90 152.774 159.773)" fill="#58aeb6" d="m179.21525,107.79525c0,14.35317 -11.8379,25.9887 -26.44069,25.9887m26.44069,-25.9887l0,0c0,14.35317 -11.8379,25.9887 -26.44069,25.9887c-14.60278,0 -26.44067,-11.6355 -26.44067,-25.9887m0,0l0,0c0,-14.35314 11.83789,-25.98868 26.44067,-25.98868c14.60279,0 26.44069,11.63554 26.44069,25.98868l0,103.95484c0,14.35314 -11.8379,25.98865 -26.44069,25.98865c-14.60278,0 -26.44067,-11.6355 -26.44067,-25.98865l0,-103.95484z" id="svg_8" stroke-width="0" stroke="#000"/>
   </g>
  </g>
  <g id="svg_22">
   <path stroke="#000" stroke-width="0" id="svg_21" d="m131.20689,91.11841c0,1.14266 -13.97181,2.06897 -31.2069,2.06897m31.2069,-2.06897l0,0c0,1.14266 -13.97181,2.06897 -31.2069,2.06897c-17.23509,0 -31.20688,-0.92631 -31.20688,-2.06897m0,0l0,0c0,-1.14265 13.97179,-2.06896 31.20688,-2.06896c17.23509,0 31.2069,0.92631 31.2069,2.06896l0,8.27587c0,1.14265 -13.97181,2.06896 -31.2069,2.06896c-17.23509,0 -31.20688,-0.92631 -31.20688,-2.06896l0,-8.27587z" fill="#1c5463"/>
   <path stroke="#000" stroke-width="0" id="svg_1" d="m131.20689,88.31139c0,1.14266 -13.9718,2.06897 -31.2069,2.06897m31.2069,-2.06897l0,0c0,1.14266 -13.9718,2.06897 -31.2069,2.06897c-17.23509,0 -31.20689,-0.92631 -31.20689,-2.06897m0,0l0,0c0,-1.14266 13.9718,-2.06896 31.20689,-2.06896c17.23509,0 31.2069,0.92631 31.2069,2.06896l0,8.27586c0,1.14266 -13.9718,2.06896 -31.2069,2.06896c-17.23509,0 -31.20689,-0.9263 -31.20689,-2.06896l0,-8.27586z" fill="#286e87"/>
  </g>
  <g id="svg_24">
   <path stroke="#000" stroke-width="0" id="svg_20" d="m131.20689,109.78089c0,1.53714 -13.97181,2.78325 -31.2069,2.78325m31.2069,-2.78325l0,0c0,1.53714 -13.97181,2.78325 -31.2069,2.78325c-17.23509,0 -31.20688,-1.2461 -31.20688,-2.78325m0,0l0,0c0,-1.53715 13.97179,-2.78325 31.20688,-2.78325c17.23509,0 31.2069,1.2461 31.2069,2.78325l0,11.13301c0,1.53715 -13.97181,2.78324 -31.2069,2.78324c-17.23509,0 -31.20688,-1.24609 -31.20688,-2.78324l0,-11.13301z" fill="#1c5463"/>
   <path stroke="#000" stroke-width="0" id="svg_2" d="m131.20689,106.92891c0,1.53714 -13.97181,2.78324 -31.2069,2.78324m31.2069,-2.78324l0,0c0,1.53714 -13.97181,2.78324 -31.2069,2.78324c-17.23509,0 -31.20688,-1.24609 -31.20688,-2.78324m0,0l0,0c0,-1.53715 13.97179,-2.78326 31.20688,-2.78326c17.23509,0 31.2069,1.24611 31.2069,2.78326l0,11.133c0,1.53715 -13.97181,2.78324 -31.2069,2.78324c-17.23509,0 -31.20688,-1.24609 -31.20688,-2.78324l0,-11.133z" fill="#286e87"/>
  </g>
  <g id="svg_26">
   <path transform="rotate(90 146.071 162.581)" stroke="#000" stroke-width="0" id="svg_25" d="m177.27832,157.01415c0,1.53714 -13.97181,2.78325 -31.2069,2.78325m31.2069,-2.78325l0,0c0,1.53714 -13.97181,2.78325 -31.2069,2.78325c-17.23509,0 -31.20688,-1.2461 -31.20688,-2.78325m0,0l0,0c0,-1.53715 13.97179,-2.78325 31.20688,-2.78325c17.23509,0 31.2069,1.2461 31.2069,2.78325l0,11.13301c0,1.53715 -13.97181,2.78324 -31.2069,2.78324c-17.23509,0 -31.20688,-1.24609 -31.20688,-2.78324l0,-11.13301z" fill="#1c5463"/>
   <path transform="rotate(90 146.072 160)" stroke="#000" stroke-width="0" id="svg_10" d="m177.27832,154.4335c0,1.53714 -13.97181,2.78325 -31.2069,2.78325m31.2069,-2.78325l0,0c0,1.53714 -13.97181,2.78325 -31.2069,2.78325c-17.23509,0 -31.20688,-1.2461 -31.20688,-2.78325m0,0l0,0c0,-1.53715 13.97179,-2.78325 31.20688,-2.78325c17.23509,0 31.2069,1.2461 31.2069,2.78325l0,11.13301c0,1.53715 -13.97181,2.78324 -31.2069,2.78324c-17.23509,0 -31.20688,-1.24609 -31.20688,-2.78324l0,-11.13301z" fill="#286e87"/>
  </g>
  <g id="svg_29">
   <path stroke="#000" fill="#edb45e" stroke-width="0" d="m139.5923,36.16722c0,5.2272 -17.72608,9.46468 -39.59231,9.46468m39.59231,-9.46468l0,0c0,5.2272 -17.72608,9.46468 -39.59231,9.46468c-21.86621,0 -39.59229,-4.23747 -39.59229,-9.46468m0,0l0,0c0,-5.22719 17.72607,-9.46468 39.59229,-9.46468c21.86623,0 39.59231,4.23749 39.59231,9.46468l0,37.85875c0,5.22719 -17.72608,9.46467 -39.59231,9.46467c-21.86621,0 -39.59229,-4.23747 -39.59229,-9.46467l0,-37.85875z" id="svg_9"/>
   <g id="svg_3">
    <rect stroke="#000" fill="#f4c271" x="42.77547" y="10.17117" width="114.59684" height="45.98509" id="svg_4" stroke-width="0"/>
    <path stroke="#000" fill="#ffd896" stroke-width="0" d="m42.4745,10.21591l21.57206,-10.21591l71.90688,0l21.57205,10.21591l-115.05099,0z" id="svg_5"/>
   </g>
  </g>
 </g>

</svg>