<svg width="200" height="200" xmlns="http://www.w3.org/2000/svg">
 <g>
  <title>Layer 1</title>
  <path transform="rotate(180 100 206.563)" id="svg_4" d="m138.26087,87.53623c0,3.44177 -17.12998,6.23188 -38.26087,6.23188m38.26087,-6.23188l0,0c0,3.44177 -17.12998,6.23188 -38.26087,6.23188c-21.13089,0 -38.26086,-2.7901 -38.26086,-6.23188m0,0l0,0c0,-3.44177 17.12997,-6.23189 38.26086,-6.23189c21.13089,0 38.26087,2.79012 38.26087,6.23189l0,24.92755c0,3.44177 -17.12998,6.23187 -38.26087,6.23187c-21.13089,0 -38.26086,-2.7901 -38.26086,-6.23187l0,-24.92755z" stroke-width="0" fill="#00ff00"/>
  <rect stroke="#000000" rx="15" fill="#8be800" stroke-width="0" stroke-opacity="0" x="39.99998" y="12.93098" width="140" height="174.13802" id="svg_3" opacity="0.8"/>
  <g id="svg_2">
   <rect fill="#00d9ed" stroke-width="0" stroke-opacity="0" x="179.99999" y="61.5" width="20" height="77" id="svg_1" stroke="#000000"/>
   <path transform="rotate(180 143.769 100)" fill="#00cdd8" stroke-width="0" stroke-opacity="0" d="m107.51885,66.85065l36.25,0l0,0c20.02033,0 36.25,14.84147 36.25,33.14935c0,18.30788 -16.22968,33.14935 -36.25,33.14935l-36.25,0l0,-66.2987z" id="svg_7" stroke="#000000"/>
  </g>
 </g>

</svg>