<svg width="800" height="300" xmlns="http://www.w3.org/2000/svg">

 <g>
  <title>Layer 1</title>
  <g>
   <g>
    <title>Layer 1</title>
    <g id="svg_1">
     <g id="svg_8">
      <path transform="rotate(90 115.882 78.7929)" stroke="#000" fill="#1c5463" d="m142.32243,4.65517c0,20.47256 -11.8379,37.06884 -26.44068,37.06884m26.44068,-37.06884l0,0c0,20.47256 -11.8379,37.06884 -26.44068,37.06884c-14.60278,0 -26.44067,-16.59625 -26.44067,-37.06884m0,0l0,0c0,-20.47254 11.83789,-37.06884 26.44067,-37.06884c14.60279,0 26.44068,16.5963 26.44068,37.06884l0,148.27544c0,20.47254 -11.8379,37.06879 -26.44068,37.06879c-14.60278,0 -26.44067,-16.59625 -26.44067,-37.06879l0,-148.27544z" id="svg_13" stroke-width="0"/>
      <path transform="rotate(90 99.4023 78.7931)" stroke="#000" stroke-width="0" id="svg_12" d="m130.60916,74.65517c0,1.14266 -13.9718,2.06897 -31.2069,2.06897m31.2069,-2.06897l0,0c0,1.14266 -13.9718,2.06897 -31.2069,2.06897c-17.23509,0 -31.20689,-0.92631 -31.20689,-2.06897m0,0l0,0c0,-1.14266 13.9718,-2.06896 31.20689,-2.06896c17.23509,0 31.2069,0.92631 31.2069,2.06896l0,8.27586c0,1.14266 -13.9718,2.06896 -31.2069,2.06896c-17.23509,0 -31.20689,-0.9263 -31.20689,-2.06896l0,-8.27586z" fill="#1c5463"/>
      <path fill="#1c5463" d="m57.42176,-24.88507c0,14.35317 -11.8379,25.9887 -26.44069,25.9887m26.44069,-25.9887l0,0c0,14.35317 -11.8379,25.9887 -26.44069,25.9887c-14.60278,0 -26.44067,-11.6355 -26.44067,-25.9887m0,0l0,0c0,-14.35314 11.83789,-25.98868 26.44067,-25.98868c14.60279,0 26.44069,11.63554 26.44069,25.98868l0,103.95484c0,14.35314 -11.8379,25.98865 -26.44069,25.98865c-14.60278,0 -26.44067,-11.6355 -26.44067,-25.98865l0,-103.95484z" id="svg_11" stroke-width="0" stroke="#000"/>
      <path transform="rotate(90 79.3567 78.7929)" stroke="#000" stroke-width="0" id="svg_10" d="m110.5636,73.22639c0,1.53714 -13.97181,2.78324 -31.2069,2.78324m31.2069,-2.78324l0,0c0,1.53714 -13.97181,2.78324 -31.2069,2.78324c-17.23509,0 -31.20688,-1.24609 -31.20688,-2.78324m0,0l0,0c0,-1.53715 13.97179,-2.78326 31.20688,-2.78326c17.23509,0 31.2069,1.24611 31.2069,2.78326l0,11.133c0,1.53715 -13.97181,2.78324 -31.2069,2.78324c-17.23509,0 -31.20688,-1.24609 -31.20688,-2.78324l0,-11.133z" fill="#1c5463"/>
      <path stroke="#000" stroke-width="0" id="svg_9" d="m62.41378,28.22817c0,1.53714 -13.97181,2.78325 -31.2069,2.78325m31.2069,-2.78325l0,0c0,1.53714 -13.97181,2.78325 -31.2069,2.78325c-17.23509,0 -31.20688,-1.2461 -31.20688,-2.78325m0,0l0,0c0,-1.53715 13.97179,-2.78325 31.20688,-2.78325c17.23509,0 31.2069,1.2461 31.2069,2.78325l0,11.13301c0,1.53715 -13.97181,2.78324 -31.2069,2.78324c-17.23509,0 -31.20688,-1.24609 -31.20688,-2.78324l0,-11.13301z" fill="#1c5463"/>
     </g>
     <g id="svg_2">
      <path transform="rotate(90 115.882 74.716)" stroke="#000" fill="#58aeb6" d="m142.32243,0.57824c0,20.47256 -11.8379,37.06884 -26.44068,37.06884m26.44068,-37.06884l0,0c0,20.47256 -11.8379,37.06884 -26.44068,37.06884c-14.60278,0 -26.44067,-16.59625 -26.44067,-37.06884m0,0l0,0c0,-20.47254 11.83789,-37.06884 26.44067,-37.06884c14.60279,0 26.44068,16.5963 26.44068,37.06884l0,148.27544c0,20.47254 -11.8379,37.06879 -26.44068,37.06879c-14.60278,0 -26.44067,-16.59625 -26.44067,-37.06879l0,-148.27544z" id="svg_7" stroke-width="0"/>
      <path transform="rotate(90 99.4023 74.7162)" stroke="#000" stroke-width="0" id="svg_6" d="m130.60916,70.57824c0,1.14266 -13.9718,2.06897 -31.2069,2.06897m31.2069,-2.06897l0,0c0,1.14266 -13.9718,2.06897 -31.2069,2.06897c-17.23509,0 -31.20689,-0.92631 -31.20689,-2.06897m0,0l0,0c0,-1.14266 13.9718,-2.06896 31.20689,-2.06896c17.23509,0 31.2069,0.92631 31.2069,2.06896l0,8.27586c0,1.14266 -13.9718,2.06896 -31.2069,2.06896c-17.23509,0 -31.20689,-0.9263 -31.20689,-2.06896l0,-8.27586z" fill="#286e87"/>
      <path fill="#58aeb6" d="m57.42176,-28.962c0,14.35317 -11.8379,25.9887 -26.44069,25.9887m26.44069,-25.9887l0,0c0,14.35317 -11.8379,25.9887 -26.44069,25.9887c-14.60278,0 -26.44067,-11.6355 -26.44067,-25.9887m0,0l0,0c0,-14.35314 11.83789,-25.98868 26.44067,-25.98868c14.60279,0 26.44069,11.63554 26.44069,25.98868l0,103.95484c0,14.35314 -11.8379,25.98865 -26.44069,25.98865c-14.60278,0 -26.44067,-11.6355 -26.44067,-25.98865l0,-103.95484z" id="svg_5" stroke-width="0" stroke="#000"/>
      <path transform="rotate(90 79.3562 74.7158)" stroke="#000" stroke-width="0" id="svg_4" d="m110.5636,69.14946c0,1.53714 -13.97181,2.78324 -31.2069,2.78324m31.2069,-2.78324l0,0c0,1.53714 -13.97181,2.78324 -31.2069,2.78324c-17.23509,0 -31.20688,-1.24609 -31.20688,-2.78324m0,0l0,0c0,-1.53715 13.97179,-2.78326 31.20688,-2.78326c17.23509,0 31.2069,1.24611 31.2069,2.78326l0,11.133c0,1.53715 -13.97181,2.78324 -31.2069,2.78324c-17.23509,0 -31.20688,-1.24609 -31.20688,-2.78324l0,-11.133z" fill="#286e87"/>
      <path stroke="#000" stroke-width="0" id="svg_3" d="m62.41378,24.15124c0,1.53714 -13.97181,2.78325 -31.2069,2.78325m31.2069,-2.78325l0,0c0,1.53714 -13.97181,2.78325 -31.2069,2.78325c-17.23509,0 -31.20688,-1.2461 -31.20688,-2.78325m0,0l0,0c0,-1.53715 13.97179,-2.78325 31.20688,-2.78325c17.23509,0 31.2069,1.2461 31.2069,2.78325l0,11.13301c0,1.53715 -13.97181,2.78324 -31.2069,2.78324c-17.23509,0 -31.20688,-1.24609 -31.20688,-2.78324l0,-11.13301z" fill="#286e87"/>
     </g>
    </g>
   </g>
  </g>
  <g>
   <g>
    <title>Layer 1</title>
    <g id="svg_14">
     <g id="svg_22">
      <path stroke="#000" stroke-width="0" id="svg_28" d="m795.41614,-24.88536c0,14.35317 -11.8379,25.9887 -26.44069,25.9887m26.44069,-25.9887l0,0c0,14.35317 -11.8379,25.9887 -26.44069,25.9887c-14.60278,0 -26.44067,-11.6355 -26.44067,-25.9887m0,0l0,0c0,-14.35314 11.83789,-25.98868 26.44067,-25.98868c14.60279,0 26.44069,11.63554 26.44069,25.98868l0,103.95484c0,14.35314 -11.8379,25.98865 -26.44069,25.98865c-14.60278,0 -26.44067,-11.6355 -26.44067,-25.98865l0,-103.95484z" fill="#1c5463"/>
      <path fill="#1c5463" d="m800,28.22788c0,1.53714 -13.97181,2.78325 -31.2069,2.78325m31.2069,-2.78325l0,0c0,1.53714 -13.97181,2.78325 -31.2069,2.78325c-17.23509,0 -31.20688,-1.2461 -31.20688,-2.78325m0,0l0,0c0,-1.53715 13.97179,-2.78325 31.20688,-2.78325c17.23509,0 31.2069,1.2461 31.2069,2.78325l0,11.13301c0,1.53715 -13.97181,2.78324 -31.2069,2.78324c-17.23509,0 -31.20688,-1.24609 -31.20688,-2.78324l0,-11.13301z" id="svg_27" stroke-width="0" stroke="#000"/>
      <g transform="rotate(180 683.896 78.7928)" id="svg_23">
       <path transform="rotate(90 683.895 78.7925)" stroke-width="0" id="svg_26" d="m710.33556,4.65488c0,20.47256 -11.8379,37.06884 -26.44068,37.06884m26.44068,-37.06884l0,0c0,20.47256 -11.8379,37.06884 -26.44068,37.06884c-14.60278,0 -26.44067,-16.59625 -26.44067,-37.06884m0,0l0,0c0,-20.47254 11.83789,-37.06884 26.44067,-37.06884c14.60279,0 26.44068,16.5963 26.44068,37.06884l0,148.27544c0,20.47254 -11.8379,37.06879 -26.44068,37.06879c-14.60278,0 -26.44067,-16.59625 -26.44067,-37.06879l0,-148.27544z" fill="#1c5463" stroke="#000"/>
       <path transform="rotate(90 667.108 78.7928)" fill="#1c5463" d="m698.3146,74.65488c0,1.14266 -13.9718,2.06897 -31.2069,2.06897m31.2069,-2.06897l0,0c0,1.14266 -13.9718,2.06897 -31.2069,2.06897c-17.23509,0 -31.20689,-0.92631 -31.20689,-2.06897m0,0l0,0c0,-1.14266 13.9718,-2.06896 31.20689,-2.06896c17.23509,0 31.2069,0.92631 31.2069,2.06896l0,8.27586c0,1.14266 -13.9718,2.06896 -31.2069,2.06896c-17.23509,0 -31.20689,-0.9263 -31.20689,-2.06896l0,-8.27586z" id="svg_25" stroke-width="0" stroke="#000"/>
       <path transform="rotate(90 647.062 78.7926)" fill="#1c5463" d="m678.26904,73.2261c0,1.53714 -13.97181,2.78324 -31.2069,2.78324m31.2069,-2.78324l0,0c0,1.53714 -13.97181,2.78324 -31.2069,2.78324c-17.23509,0 -31.20688,-1.24609 -31.20688,-2.78324m0,0l0,0c0,-1.53715 13.97179,-2.78326 31.20688,-2.78326c17.23509,0 31.2069,1.24611 31.2069,2.78326l0,11.133c0,1.53715 -13.97181,2.78324 -31.2069,2.78324c-17.23509,0 -31.20688,-1.24609 -31.20688,-2.78324l0,-11.133z" id="svg_24" stroke-width="0" stroke="#000"/>
      </g>
     </g>
     <g id="svg_15">
      <path stroke="#000" stroke-width="0" id="svg_21" d="m795.41614,-28.96699c0,14.35317 -11.8379,25.9887 -26.44069,25.9887m26.44069,-25.9887l0,0c0,14.35317 -11.8379,25.9887 -26.44069,25.9887c-14.60278,0 -26.44067,-11.6355 -26.44067,-25.9887m0,0l0,0c0,-14.35314 11.83789,-25.98868 26.44067,-25.98868c14.60279,0 26.44069,11.63554 26.44069,25.98868l0,103.95484c0,14.35314 -11.8379,25.98865 -26.44069,25.98865c-14.60278,0 -26.44067,-11.6355 -26.44067,-25.98865l0,-103.95484z" fill="#58aeb6"/>
      <path fill="#286e87" d="m800,24.14625c0,1.53714 -13.97181,2.78325 -31.2069,2.78325m31.2069,-2.78325l0,0c0,1.53714 -13.97181,2.78325 -31.2069,2.78325c-17.23509,0 -31.20688,-1.2461 -31.20688,-2.78325m0,0l0,0c0,-1.53715 13.97179,-2.78325 31.20688,-2.78325c17.23509,0 31.2069,1.2461 31.2069,2.78325l0,11.13301c0,1.53715 -13.97181,2.78324 -31.2069,2.78324c-17.23509,0 -31.20688,-1.24609 -31.20688,-2.78324l0,-11.13301z" id="svg_20" stroke-width="0" stroke="#000"/>
      <g transform="rotate(180 683.896 74.7112)" id="svg_16">
       <path transform="rotate(90 683.895 74.711)" stroke-width="0" id="svg_19" d="m710.33556,0.57325c0,20.47256 -11.8379,37.06884 -26.44068,37.06884m26.44068,-37.06884l0,0c0,20.47256 -11.8379,37.06884 -26.44068,37.06884c-14.60278,0 -26.44067,-16.59625 -26.44067,-37.06884m0,0l0,0c0,-20.47254 11.83789,-37.06884 26.44067,-37.06884c14.60279,0 26.44068,16.5963 26.44068,37.06884l0,148.27544c0,20.47254 -11.8379,37.06879 -26.44068,37.06879c-14.60278,0 -26.44067,-16.59625 -26.44067,-37.06879l0,-148.27544z" fill="#58aeb6" stroke="#000"/>
       <path transform="rotate(90 667.108 74.7111)" fill="#286e87" d="m698.3146,70.57325c0,1.14266 -13.9718,2.06897 -31.2069,2.06897m31.2069,-2.06897l0,0c0,1.14266 -13.9718,2.06897 -31.2069,2.06897c-17.23509,0 -31.20689,-0.92631 -31.20689,-2.06897m0,0l0,0c0,-1.14266 13.9718,-2.06896 31.20689,-2.06896c17.23509,0 31.2069,0.92631 31.2069,2.06896l0,8.27586c0,1.14266 -13.9718,2.06896 -31.2069,2.06896c-17.23509,0 -31.20689,-0.9263 -31.20689,-2.06896l0,-8.27586z" id="svg_18" stroke-width="0" stroke="#000"/>
       <path transform="rotate(90 647.062 74.7107)" fill="#286e87" d="m678.26904,69.14447c0,1.53714 -13.97181,2.78324 -31.2069,2.78324m31.2069,-2.78324l0,0c0,1.53714 -13.97181,2.78324 -31.2069,2.78324c-17.23509,0 -31.20688,-1.24609 -31.20688,-2.78324m0,0l0,0c0,-1.53715 13.97179,-2.78326 31.20688,-2.78326c17.23509,0 31.2069,1.24611 31.2069,2.78326l0,11.133c0,1.53715 -13.97181,2.78324 -31.2069,2.78324c-17.23509,0 -31.20688,-1.24609 -31.20688,-2.78324l0,-11.133z" id="svg_17" stroke-width="0" stroke="#000"/>
      </g>
     </g>
    </g>
   </g>
  </g>
  <ellipse stroke-width="20" stroke="#58aeb6" ry="270" rx="270" id="svg_29" cy="1" cx="400" fill="#377a80"/>
 </g>
</svg>