<svg width="200" height="200" xmlns="http://www.w3.org/2000/svg">
 <g>
  <title>Layer 1</title>
  <g id="svg_6">
   <rect fill="#01caee" stroke="#000" x="72.5" y="179.5" width="55" height="11" class="OngThang_Nuoc" stroke-width="0"/>
   <rect fill="#01caee" stroke="#000" x="72.5" y="169.5" width="55" height="11" class="OngThang_Nuoc" stroke-width="0"/>
   <rect fill="#01caee" stroke="#000" x="72.5" y="159.5" width="55" height="11" class="OngThang_Nuoc" stroke-width="0"/>
   <rect fill="#01caee" stroke="#000" x="72.5" y="149.5" width="55" height="11" class="OngThang_Nuoc" stroke-width="0"/>
   <rect fill="#01caee" stroke="#000" x="72.5" y="139.5" width="55" height="11" class="OngThang_Nuoc" stroke-width="0"/>
   <rect fill="#01caee" stroke="#000" x="72.5" y="129.5" width="55" height="11" class="OngThang_Nuoc" stroke-width="0"/>
   <rect fill="#01caee" stroke="#000" x="72.5" y="119.5" width="55" height="11" class="OngThang_Nuoc" stroke-width="0"/>
   <rect fill="#01caee" stroke="#000" x="72.5" y="109.5" width="55" height="11" class="OngThang_Nuoc" stroke-width="0"/>
   <rect fill="#01caee" stroke="#000" x="72.5" y="99.5" width="55" height="11" class="OngThang_Nuoc" stroke-width="0"/>
   <rect fill="#01caee" stroke="#000" x="72.5" y="89.5" width="55" height="11" class="OngThang_Nuoc" stroke-width="0"/>
   <rect fill="#01caee" stroke="#000" x="72.5" y="79.5" width="55" height="11" class="OngThang_Nuoc" stroke-width="0"/>
   <rect fill="#01caee" stroke="#000" x="72.5" y="69.5" width="55" height="11" class="OngThang_Nuoc" stroke-width="0"/>
   <rect fill="#01caee" stroke="#000" x="72.5" y="59.5" width="55" height="11" class="OngThang_Nuoc" stroke-width="0"/>
   <rect fill="#01caee" stroke="#000" x="72.5" y="49.5" width="55" height="11" class="OngThang_Nuoc" stroke-width="0"/>
   <rect fill="#01caee" stroke="#000" x="72.5" y="39.5" width="55" height="11" class="OngThang_Nuoc" stroke-width="0"/>
   <rect fill="#01caee" stroke="#000" x="72.5" y="29.5" width="55" height="11" class="OngThang_Nuoc" stroke-width="0"/>
   <rect fill="#01caee" stroke="#000" x="72.5" y="19.5" width="55" height="11" class="OngThang_Nuoc" stroke-width="0"/>
   <rect fill="#01caee" stroke="#000" x="72.5" y="9.5" width="55" height="11" class="OngThang_Nuoc" stroke-width="0"/>
  </g>
 </g>
</svg>