<svg width="130" height="140" xmlns="http://www.w3.org/2000/svg">
 <g>
  <title>Layer 1</title>
  <g id="svg_3">
   <ellipse stroke-width="25" ry="50" rx="50" id="svg_2" cy="74.25" cx="65" stroke="#36a0a5" fill="#663300"/>
   <ellipse stroke-width="25" ry="50" rx="50" id="svg_1" cy="65.75" cx="65" stroke="#77dae5" fill="#663300"/>
  </g>
  <path stroke="#3c1e00" stroke-width="1.5" id="svg_5" d="m29.44146,49.63552l0,0l0,-0.00651l0,0.00651zm0.00289,-0.00651l16.65246,18.80837l-16.65535,18.80185l6.12312,6.91671l22.77847,-25.72182l-22.77847,-25.72182l-6.12023,6.91671zm29.50755,44.05778l41.60664,0l0,-9.77071l-41.60664,0l0,9.77071zm12.50883,-20.36243l29.09781,0l0,-9.77071l-29.09781,0l0,9.77071zm-12.50883,-30.1364l0,9.77723l41.60664,0l0,-9.77723l-41.60664,0z" fill="#3c1e00"/>
  <path stroke="#3c1e00" stroke-width="1.5" id="svg_4" d="m29.44146,46.95733l0,0l0,-0.00652l0,0.00652zm0.00289,-0.00652l16.65247,18.80837l-16.65535,18.80185l6.12312,6.91671l22.77847,-25.72182l-22.77847,-25.72182l-6.12024,6.91671zm29.50756,44.05778l41.60664,0l0,-9.77071l-41.60664,0l0,9.77071zm12.50883,-20.36243l29.09781,0l0,-9.77071l-29.09781,0l0,9.77071zm-12.50883,-30.1364l0,9.77722l41.60664,0l0,-9.77722l-41.60664,0z" fill="#f3f3f3"/>
 </g>

</svg>