<svg width="130" height="140" xmlns="http://www.w3.org/2000/svg">
 <g>
  <title>Layer 1</title>
  <g id="svg_3">
   <ellipse stroke-width="25" ry="50" rx="50" id="svg_2" cy="74.25" cx="65" stroke="#a52b62" fill="#663300"/>
   <ellipse stroke-width="25" ry="50" rx="50" id="svg_1" cy="65.75" cx="65" stroke="#d05288" fill="#410f57"/>
  </g>
  <path transform="rotate(-9.14065 63.7204 69.0954)" stroke="#360c49" id="svg_7" d="m61.25525,115.51843c-6.61903,-0.99327 -10.19289,-10.27818 -3.57912,-13.67939c6.89469,-3.35365 10.99525,8.5852 3.46407,9.75214c-4.12385,1.45843 5.35415,3.90076 7.12069,1.44842c5.51978,-2.52213 4.66711,-9.08649 3.33908,-13.70958c-0.46088,-3.54174 -1.03724,-7.33348 -5.77087,-5.3206c-11.42028,0.86741 -20.46171,-10.06976 -19.55355,-20.30145c0.30833,-9.65075 8.68219,-16.26071 14.88283,-22.96245c-2.03569,-8.76757 -2.65034,-18.89651 3.25091,-26.53677c5.43574,-6.21069 8.1948,5.15437 9.11428,9.01084c2.04239,9.01449 -2.02998,18.48729 -8.80633,24.84174c0.64704,3.01417 1.28367,6.03035 1.94307,9.04214c7.16089,-1.30515 13.9963,4.40698 14.38687,11.09767c1.10648,6.04179 -2.99852,11.7475 -8.60552,14.34409c-0.0922,5.18816 2.94456,10.56984 1.85341,15.92736c-1.04789,5.53921 -7.62842,8.25547 -13.03982,7.04584l0,0zm7.47573,-23.63727c2.0288,-3.59512 -1.65115,-9.94437 -1.8532,-14.55916c0.07947,-8.0472 -8.96267,1.55882 -6.27374,5.51062c0.79709,2.33837 7.71562,6.62658 1.3604,3.98187c-6.63502,-3.74877 -6.33112,-13.39416 -0.26862,-17.46673c5.08623,-1.06355 1.97975,-7.47081 1.02138,-9.57536c-6.24696,5.37446 -13.32763,12.14198 -12.25027,20.84058c0.81153,8.15316 10.22672,13.09914 18.26405,11.26819l0,-0.00001zm4.20323,-1.55624c5.95813,-3.61081 5.76259,-13.08712 -0.75603,-16.02623c-6.95541,-3.46949 -2.1914,5.61998 -2.06396,9.07975c0.96527,1.32445 0.41849,9.04184 2.81999,6.94648zm-7.34307,-43.43741c3.66501,-4.18542 7.8545,-10.22787 5.28059,-15.76155c-5.54291,-3.45405 -8.62315,5.88445 -8.75946,9.97357c-0.05043,2.65148 -0.46435,11.79068 3.47888,5.78798l0,0l-0.00001,0z" fill="#360c49"/>
  <path transform="rotate(-9.14065 63.7204 64.4977)" stroke="#f3f3f3" id="svg_5" d="m61.25525,110.92073c-6.61903,-0.99327 -10.19289,-10.27818 -3.57912,-13.67939c6.89469,-3.35364 10.99525,8.5852 3.46407,9.75214c-4.12385,1.45843 5.35415,3.90076 7.12069,1.44842c5.51979,-2.52213 4.66712,-9.08649 3.33908,-13.70958c-0.46088,-3.54174 -1.03724,-7.33348 -5.77087,-5.3206c-11.42028,0.8674 -20.46171,-10.06977 -19.55355,-20.30145c0.30833,-9.65075 8.68219,-16.26071 14.88283,-22.96246c-2.03568,-8.76756 -2.65034,-18.8965 3.25091,-26.53676c5.43574,-6.21069 8.19479,5.15437 9.11427,9.01084c2.0424,9.01449 -2.02997,18.48729 -8.80633,24.84174c0.64704,3.01417 1.28367,6.03035 1.94307,9.04214c7.1609,-1.30515 13.9963,4.40698 14.38688,11.09767c1.10647,6.04179 -2.99852,11.7475 -8.60553,14.34409c-0.0922,5.18816 2.94456,10.56984 1.85341,15.92736c-1.04789,5.5392 -7.62842,8.25547 -13.03982,7.04584l0,0zm7.47573,-23.63727c2.0288,-3.59513 -1.65116,-9.94437 -1.8532,-14.55916c0.07946,-8.0472 -8.96268,1.55882 -6.27374,5.51062c0.79708,2.33837 7.71562,6.62658 1.3604,3.98187c-6.63502,-3.74877 -6.33112,-13.39416 -0.26862,-17.46673c5.08622,-1.06355 1.97975,-7.47081 1.02138,-9.57536c-6.24697,5.37446 -13.32763,12.14198 -12.25027,20.84058c0.81153,8.15316 10.22672,13.09914 18.26406,11.26819l0,0zm4.20322,-1.55624c5.95813,-3.61081 5.76259,-13.08713 -0.75603,-16.02624c-6.95541,-3.46948 -2.1914,5.61998 -2.06395,9.07975c0.96527,1.32445 0.41848,9.04183 2.81999,6.94648zm-7.34307,-43.43741c3.665,-4.18542 7.8545,-10.22787 5.28058,-15.76155c-5.54291,-3.45405 -8.62314,5.88445 -8.75946,9.97357c-0.05043,2.65148 -0.46435,11.79068 3.47888,5.78798l0,0l0,0z" fill="#f3f3f3"/>
 </g>

</svg>