<svg width="130" height="140" xmlns="http://www.w3.org/2000/svg">
 <g>
  <title>Layer 1</title>
  <g id="svg_3">
   <ellipse fill="#663300" stroke="#287bba" cx="65" cy="74.25" id="svg_2" rx="50" ry="50" stroke-width="25"/>
   <ellipse fill="#036600" stroke="#389aeb" cx="65" cy="65.75" id="svg_1" rx="50" ry="50" stroke-width="25"/>
  </g>
  <path fill="#023c00" stroke="#023c00" stroke-linejoin="round" d="m31.48655,53.56647l0,31.98597l19.08201,0l28.56571,22.38532l0.01698,-76.7566l-28.56995,22.38532l-19.09475,0l0,-0.00001zm58.61722,-3.67822c-1.66835,-1.5758 -4.34705,-1.5758 -6.00691,0.0081c-1.65561,1.5839 -1.65561,4.14813 0.00849,5.73609l0,-0.0081c3.66358,3.49998 5.922,8.30031 5.922,13.63536c0,5.33099 -2.25418,10.11512 -5.91351,13.6151c-1.67259,1.5758 -1.67259,4.14003 -0.00849,5.73203c0.82781,0.78993 1.91457,1.18692 3.00133,1.18692c1.09101,0 2.17777,-0.39699 3.00558,-1.18692c5.18759,-4.94211 8.40542,-11.8084 8.40118,-19.34714c0.00425,-7.55494 -3.22632,-14.42933 -8.40967,-19.37144z" id="svg_5" stroke-width="3"/>
  <path fill="#f3f3f3" stroke="#023c00" stroke-linejoin="round" d="m31.48655,49.94216l0,31.98597l19.08201,0l28.56571,22.38532l0.01698,-76.7566l-28.56995,22.38532l-19.09475,0l0,-0.00001zm58.61722,-3.67822c-1.66835,-1.5758 -4.34705,-1.5758 -6.00691,0.0081c-1.65561,1.5839 -1.65561,4.14813 0.00849,5.73609l0,-0.0081c3.66358,3.49998 5.922,8.30031 5.922,13.63536c0,5.33099 -2.25418,10.11512 -5.91351,13.6151c-1.67259,1.5758 -1.67259,4.14003 -0.00849,5.73203c0.82781,0.78993 1.91457,1.18692 3.00133,1.18692c1.09101,0 2.17777,-0.39699 3.00558,-1.18692c5.18759,-4.94211 8.40542,-11.8084 8.40118,-19.34714c0.00425,-7.55494 -3.22632,-14.42933 -8.40967,-19.37144z" id="svg_4" stroke-width="3"/>
 </g>

</svg>