<svg width="130" height="140" xmlns="http://www.w3.org/2000/svg">
 <g>
  <title>Layer 1</title>
  <g id="svg_4">
   <ellipse fill="#663300" stroke="#a00000" cx="65" cy="74.5" id="svg_2" rx="50" ry="50" stroke-width="25"/>
   <ellipse fill="#663300" stroke="#e10000" cx="65" cy="65.5" id="svg_1" rx="50" ry="50" stroke-width="25"/>
  </g>
  <path stroke="#3c1e00" id="svg_6" d="m58.30101,49.75494l0,-7.35378l-36.42308,22.77715l36.42308,22.77736l0,-7.89074c9.88361,-0.005 27.23497,0.90983 27.23497,7.39355c0,9.05926 -18.12145,13.89211 -18.12145,13.89211l0,6.94598c0,0 40.70753,1.50649 40.70753,-32.0105c0,-26.3323 -34.86448,-27.3218 -49.82105,-26.53113z" stroke-width="3" fill="#3c1e00"/>
  <path stroke="#3c1e00" id="svg_5" d="m58.30101,44.40095l0,-7.35378l-36.42308,22.77715l36.42308,22.77735l0,-7.89074c9.8836,-0.00501 27.23497,0.90983 27.23497,7.39355c0,9.05926 -18.12146,13.89211 -18.12146,13.89211l0,6.94598c0,0 40.70754,1.5065 40.70754,-32.0105c0,-26.3323 -34.86448,-27.3218 -49.82105,-26.53112z" stroke-width="3" fill="#f3f3f3"/>
 </g>

</svg>