<svg width="130" height="140" xmlns="http://www.w3.org/2000/svg">
 <g>
  <title>Layer 1</title>
  <g id="svg_4">
   <ellipse stroke-width="25" ry="50" rx="50" id="svg_2" cy="74.25" cx="65" stroke="#baba00" fill="#663300"/>
   <ellipse stroke-width="25" ry="50" rx="50" id="svg_1" cy="65.75" cx="65" stroke="#ffff00" fill="#663300"/>
  </g>
  <g stroke="null" stroke-width="2.5">
   <path stroke="#3c1e00" fill="#3c1e00" d="m43.32462,74.70338l-10.85792,0c-4.4733,0 -8.13327,3.71063 -8.13327,8.24583l0,20.61459c0,2.2676 1.82999,4.12292 4.06664,4.12292l14.92456,0c2.23665,0 4.06664,-1.85531 4.06664,-4.12292l0,-24.7375c0,-2.2676 -1.82999,-4.12292 -4.06664,-4.12292z"/>
   <path stroke="#3c1e00" fill="#3c1e00" d="m70.40923,58.21171l-10.85792,0c-4.47346,0 -8.13344,3.71063 -8.13344,8.24583l0,37.10625c0,2.2676 1.82999,4.12292 4.06664,4.12292l18.99136,0c2.23665,0 4.06664,-1.85531 4.06664,-4.12292l0,-37.10625c0,-4.53521 -3.61931,-8.24583 -8.13327,-8.24583z"/>
   <path stroke="#3c1e00" fill="#3c1e00" d="m97.53329,87.07214l-10.85792,0c-2.23665,0 -4.06664,1.85531 -4.06664,4.12292l0,12.36875c0,2.2676 1.82999,4.12292 4.06664,4.12292l14.92456,0c2.23665,0 4.06664,-1.85531 4.06664,-4.12292l0,-8.24583c0,-4.53521 -3.65997,-8.24583 -8.13327,-8.24583z"/>
   <path stroke="#3c1e00" fill="#3c1e00" d="m77.23834,36.98063c1.26066,-1.2781 1.74865,-2.80358 1.34199,-4.12292c-0.40666,-1.31933 -1.66732,-2.2676 -3.45664,-2.55621l-3.90397,-0.65967c-0.16267,0 -0.52866,-0.2886 -0.61,-0.45352l-2.15532,-4.37029c-1.62665,-3.33956 -5.32729,-3.33956 -6.95395,0l-2.15532,4.37029c-0.04067,0.16492 -0.40666,0.45352 -0.56933,0.45352l-3.90417,0.65967c-1.78932,0.2886 -3.00931,1.23688 -3.45664,2.55621c-0.40666,1.31933 0.08133,2.84481 1.34199,4.12292l3.00931,3.09219c0.16267,0.12369 0.28466,0.61844 0.244,0.78335l-0.85399,3.79308c-0.65066,2.84481 0.40666,4.12292 1.09799,4.61767c0.69153,0.49475 2.19619,1.15442 4.67684,-0.32983l3.65997,-2.18515c0.16267,-0.12369 0.69133,-0.12369 0.85399,0l3.61931,2.18515c1.13866,0.7009 2.07398,0.90704 2.80598,0.90704c0.85399,0 1.46399,-0.32983 1.82999,-0.57721c0.69133,-0.49475 1.74865,-1.77285 1.09799,-4.61767l-0.85399,-3.79308c-0.04067,-0.20615 0.08133,-0.65967 0.244,-0.78335l3.04998,-3.09219z"/>
  </g>
  <g id="svg_24" stroke="null" stroke-width="2.5">
   <path id="svg_20" stroke="#3c1e00" fill="#f3f3f3" d="m43.32462,70.37005l-10.85792,0c-4.4733,0 -8.13327,3.71063 -8.13327,8.24584l0,20.61458c0,2.26761 1.82999,4.12292 4.06664,4.12292l14.92455,0c2.23665,0 4.06664,-1.85531 4.06664,-4.12292l0,-24.7375c0,-2.2676 -1.82999,-4.12292 -4.06664,-4.12292z"/>
   <path id="svg_21" stroke="#3c1e00" fill="#f3f3f3" d="m70.40924,53.87838l-10.85792,0c-4.47347,0 -8.13344,3.71063 -8.13344,8.24584l0,37.10625c0,2.26761 1.82999,4.12292 4.06664,4.12292l18.99135,0c2.23665,0 4.06664,-1.85531 4.06664,-4.12292l0,-37.10625c0,-4.53521 -3.61931,-8.24584 -8.13327,-8.24584z"/>
   <path id="svg_22" stroke="#3c1e00" fill="#f3f3f3" d="m97.5333,82.7388l-10.85792,0c-2.23665,0 -4.06664,1.85532 -4.06664,4.12292l0,12.36875c0,2.26761 1.82999,4.12292 4.06664,4.12292l14.92455,0c2.23665,0 4.06664,-1.85531 4.06664,-4.12292l0,-8.24583c0,-4.53521 -3.65997,-8.24584 -8.13327,-8.24584z"/>
   <path id="svg_23" stroke="#3c1e00" fill="#f3f3f3" d="m77.23834,32.6473c1.26066,-1.27811 1.74865,-2.80359 1.34199,-4.12292c-0.40666,-1.31933 -1.66732,-2.2676 -3.45664,-2.55621l-3.90397,-0.65966c-0.16267,0 -0.52866,-0.28861 -0.61,-0.45353l-2.15531,-4.37029c-1.62666,-3.33956 -5.3273,-3.33956 -6.95395,0l-2.15532,4.37029c-0.04067,0.16492 -0.40666,0.45353 -0.56933,0.45353l-3.90417,0.65966c-1.78932,0.28861 -3.00932,1.23688 -3.45665,2.55621c-0.40666,1.31933 0.08134,2.84481 1.34199,4.12292l3.00932,3.09219c0.16266,0.12368 0.28466,0.61843 0.24399,0.78335l-0.85399,3.79308c-0.65066,2.84482 0.40666,4.12292 1.09799,4.61767c0.69153,0.49475 2.19619,1.15442 4.67684,-0.32983l3.65997,-2.18515c0.16267,-0.12369 0.69133,-0.12369 0.85399,0l3.61931,2.18515c1.13866,0.70089 2.07399,0.90704 2.80598,0.90704c0.85399,0 1.46399,-0.32983 1.82999,-0.57721c0.69132,-0.49475 1.74865,-1.77285 1.09799,-4.61767l-0.854,-3.79308c-0.04066,-0.20615 0.08134,-0.65967 0.244,-0.78335l3.04998,-3.09219z"/>
  </g>
 </g>

</svg>