<svg width="200" height="200" xmlns="http://www.w3.org/2000/svg">
 <g>
  <title>Layer 1</title>
  <g id="svg_23">
   <path transform="rotate(90 151.293 42.832)" stroke="#1c5463" stroke-width="0" id="svg_18" d="m177.73377,-9.14543c0,14.35317 -11.8379,25.9887 -26.44069,25.9887m26.44069,-25.9887l0,0c0,14.35317 -11.8379,25.9887 -26.44069,25.9887c-14.60278,0 -26.44067,-11.6355 -26.44067,-25.9887m0,0l0,0c0,-14.35314 11.83789,-25.98868 26.44067,-25.98868c14.60279,0 26.44069,11.63554 26.44069,25.98868l0,103.95484c0,14.35314 -11.8379,25.98865 -26.44069,25.98865c-14.60278,0 -26.44067,-11.6355 -26.44067,-25.98865l0,-103.95484z" fill="#1c5463"/>
   <path transform="rotate(90 144.59 43.0593)" fill="#1c5463" d="m175.79684,37.49282c0,1.53714 -13.97181,2.78325 -31.2069,2.78325m31.2069,-2.78325l0,0c0,1.53714 -13.97181,2.78325 -31.2069,2.78325c-17.23509,0 -31.20688,-1.2461 -31.20688,-2.78325m0,0l0,0c0,-1.53715 13.97179,-2.78325 31.20688,-2.78325c17.23509,0 31.2069,1.2461 31.2069,2.78325l0,11.13301c0,1.53715 -13.97181,2.78324 -31.2069,2.78324c-17.23509,0 -31.20688,-1.24609 -31.20688,-2.78324l0,-11.13301z" id="svg_19" stroke-width="0" stroke="#1c5463"/>
  </g>
  <g transform="rotate(180 179.32 165.493)" id="svg_17">
   <g id="svg_34">
    <line fill="none" stroke="#bd7332" x1="147.08098" y1="180.7994" x2="212.59259" y2="180.7994" id="svg_32" stroke-width="8"/>
    <line fill="none" stroke="#edb45e" x1="146.04649" y1="177.97509" x2="211.55811" y2="177.97509" id="svg_30" stroke-width="8"/>
   </g>
   <g id="svg_33">
    <line fill="none" stroke="#bd7332" x1="147.08098" y1="153.0443" x2="212.59259" y2="153.0443" id="svg_31" stroke-width="8"/>
    <line fill="none" stroke="#edb45e" x1="147.08098" y1="150.18715" x2="212.59259" y2="150.18715" id="svg_28" stroke-width="8"/>
   </g>
  </g>
  <g transform="rotate(180 100 106.77)" id="svg_6">
   <g id="svg_16">
    <path id="svg_12" d="m139.5923,52.7824c0,5.2272 -17.72608,9.46468 -39.59231,9.46468m39.59231,-9.46468l0,0c0,5.2272 -17.72608,9.46468 -39.59231,9.46468c-21.86621,0 -39.59229,-4.23747 -39.59229,-9.46468m0,0l0,0c0,-5.22719 17.72607,-9.46468 39.59229,-9.46468c21.86623,0 39.59231,4.23749 39.59231,9.46468l0,37.85875c0,5.22719 -17.72608,9.46467 -39.59231,9.46467c-21.86621,0 -39.59229,-4.23747 -39.59229,-9.46467l0,-37.85875z" stroke-width="0" fill="#bd7332" stroke="#000"/>
    <g id="svg_15">
     <rect stroke-width="0" id="svg_13" height="45.98509" width="114.59684" y="26.78635" x="42.77547" fill="#bd7332" stroke="#000"/>
     <path id="svg_14" d="m42.4745,26.83109l21.57206,-10.21591l71.90688,0l21.57205,10.21591l-115.05099,0z" stroke-width="0" fill="#bd7332" stroke="#000"/>
    </g>
   </g>
   <path stroke="#000" stroke-width="0" id="svg_7" d="m127.02608,90.16598c0,12.13193 -11.8379,21.9668 -26.44068,21.9668m26.44068,-21.9668l0,0c0,12.13193 -11.8379,21.9668 -26.44068,21.9668c-14.60278,0 -26.44067,-9.83485 -26.44067,-21.9668m0,0l0,0c0,-12.13192 11.83789,-21.9668 26.44067,-21.9668c14.60279,0 26.44068,9.83488 26.44068,21.9668l0,87.86725c0,12.13192 -11.8379,21.96677 -26.44068,21.96677c-14.60278,0 -26.44067,-9.83485 -26.44067,-21.96677l0,-87.86725z" fill="#58aeb6"/>
   <g id="svg_22">
    <path fill="#1c5463" d="m131.20689,104.65782c0,1.14266 -13.97181,2.06897 -31.2069,2.06897m31.2069,-2.06897l0,0c0,1.14266 -13.97181,2.06897 -31.2069,2.06897c-17.23509,0 -31.20688,-0.92631 -31.20688,-2.06897m0,0l0,0c0,-1.14265 13.97179,-2.06896 31.20688,-2.06896c17.23509,0 31.2069,0.92631 31.2069,2.06896l0,8.27587c0,1.14265 -13.97181,2.06896 -31.2069,2.06896c-17.23509,0 -31.20688,-0.92631 -31.20688,-2.06896l0,-8.27587z" id="svg_21" stroke-width="0" stroke="#000"/>
    <path fill="#286e87" d="m131.20689,101.8508c0,1.14266 -13.9718,2.06897 -31.2069,2.06897m31.2069,-2.06897l0,0c0,1.14266 -13.9718,2.06897 -31.2069,2.06897c-17.23509,0 -31.20689,-0.92631 -31.20689,-2.06897m0,0l0,0c0,-1.14266 13.9718,-2.06896 31.20689,-2.06896c17.23509,0 31.2069,0.92631 31.2069,2.06896l0,8.27586c0,1.14266 -13.9718,2.06896 -31.2069,2.06896c-17.23509,0 -31.20689,-0.9263 -31.20689,-2.06896l0,-8.27586z" id="svg_1" stroke-width="0" stroke="#000"/>
   </g>
   <g id="svg_24">
    <path fill="#1c5463" d="m131.20689,123.3203c0,1.53714 -13.97181,2.78325 -31.2069,2.78325m31.2069,-2.78325l0,0c0,1.53714 -13.97181,2.78325 -31.2069,2.78325c-17.23509,0 -31.20688,-1.2461 -31.20688,-2.78325m0,0l0,0c0,-1.53715 13.97179,-2.78325 31.20688,-2.78325c17.23509,0 31.2069,1.2461 31.2069,2.78325l0,11.13301c0,1.53715 -13.97181,2.78324 -31.2069,2.78324c-17.23509,0 -31.20688,-1.24609 -31.20688,-2.78324l0,-11.13301z" id="svg_20" stroke-width="0" stroke="#000"/>
    <path fill="#286e87" d="m131.20689,120.46832c0,1.53714 -13.97181,2.78324 -31.2069,2.78324m31.2069,-2.78324l0,0c0,1.53714 -13.97181,2.78324 -31.2069,2.78324c-17.23509,0 -31.20688,-1.24609 -31.20688,-2.78324m0,0l0,0c0,-1.53715 13.97179,-2.78326 31.20688,-2.78326c17.23509,0 31.2069,1.24611 31.2069,2.78326l0,11.133c0,1.53715 -13.97181,2.78324 -31.2069,2.78324c-17.23509,0 -31.20688,-1.24609 -31.20688,-2.78324l0,-11.133z" id="svg_2" stroke-width="0" stroke="#000"/>
   </g>
   <g id="svg_29">
    <path id="svg_9" d="m139.5923,49.70663c0,5.2272 -17.72608,9.46468 -39.59231,9.46468m39.59231,-9.46468l0,0c0,5.2272 -17.72608,9.46468 -39.59231,9.46468c-21.86621,0 -39.59229,-4.23747 -39.59229,-9.46468m0,0l0,0c0,-5.22719 17.72607,-9.46468 39.59229,-9.46468c21.86623,0 39.59231,4.23749 39.59231,9.46468l0,37.85875c0,5.22719 -17.72608,9.46467 -39.59231,9.46467c-21.86621,0 -39.59229,-4.23747 -39.59229,-9.46467l0,-37.85875z" stroke-width="0" fill="#edb45e" stroke="#000"/>
    <g id="svg_3">
     <rect stroke-width="0" id="svg_4" height="45.98509" width="114.59684" y="23.71058" x="42.77547" fill="#f4c271" stroke="#000"/>
     <path id="svg_5" d="m42.4745,23.75532l21.57206,-10.21591l71.90688,0l21.57205,10.21591l-115.05099,0z" stroke-width="0" fill="#ffd896" stroke="#000"/>
    </g>
   </g>
  </g>
  <g id="svg_11">
   <path transform="rotate(90 151.292 39.1286)" stroke="#000" stroke-width="0" id="svg_8" d="m177.73377,-12.84913c0,14.35317 -11.8379,25.9887 -26.44069,25.9887m26.44069,-25.9887l0,0c0,14.35317 -11.8379,25.9887 -26.44069,25.9887c-14.60278,0 -26.44067,-11.6355 -26.44067,-25.9887m0,0l0,0c0,-14.35314 11.83789,-25.98868 26.44067,-25.98868c14.60279,0 26.44069,11.63554 26.44069,25.98868l0,103.95484c0,14.35314 -11.8379,25.98865 -26.44069,25.98865c-14.60278,0 -26.44067,-11.6355 -26.44067,-25.98865l0,-103.95484z" fill="#58aeb6"/>
   <path transform="rotate(90 144.59 39.3556)" fill="#286e87" d="m175.79684,33.78912c0,1.53714 -13.97181,2.78325 -31.2069,2.78325m31.2069,-2.78325l0,0c0,1.53714 -13.97181,2.78325 -31.2069,2.78325c-17.23509,0 -31.20688,-1.2461 -31.20688,-2.78325m0,0l0,0c0,-1.53715 13.97179,-2.78325 31.20688,-2.78325c17.23509,0 31.2069,1.2461 31.2069,2.78325l0,11.13301c0,1.53715 -13.97181,2.78324 -31.2069,2.78324c-17.23509,0 -31.20688,-1.24609 -31.20688,-2.78324l0,-11.13301z" id="svg_10" stroke-width="0" stroke="#000"/>
  </g>
 </g>

</svg>