<svg width="499.99999999999994" height="110.00000000000001" xmlns="http://www.w3.org/2000/svg">

 <g>
  <title>Layer 1</title>
  <g id="svg_62">
   <g id="svg_61">
    <path transform="rotate(90 250 78.5847)" stroke="#000" fill="#162e3d" d="m276.44067,-45.69191c0,34.31805 -11.8379,62.13829 -26.44068,62.13829m26.44068,-62.13829l0,0c0,34.31805 -11.8379,62.13829 -26.44068,62.13829c-14.60278,0 -26.44067,-27.82019 -26.44067,-62.13829m0,0l0,0c0,-34.318 11.83789,-62.13828 26.44067,-62.13828c14.60279,0 26.44068,27.82028 26.44068,62.13828l0,248.55327c0,34.31798 -11.8379,62.13819 -26.44068,62.13819c-14.60278,0 -26.44067,-27.82021 -26.44067,-62.13819l0,-248.55327z" id="svg_51" stroke-width="0"/>
    <path transform="rotate(90 85.2571 78.6065)" stroke="#000" fill="#162e3d" d="m111.69775,24.88548c0,14.83466 -11.8379,26.86051 -26.44068,26.86051m26.44068,-26.86051l0,0c0,14.83466 -11.8379,26.86051 -26.44068,26.86051c-14.60278,0 -26.44067,-12.02583 -26.44067,-26.86051m0,0l0,0c0,-14.83464 11.83789,-26.86051 26.44067,-26.86051c14.60279,0 26.44068,12.02587 26.44068,26.86051l0,107.4421c0,14.83463 -11.8379,26.86047 -26.44068,26.86047c-14.60278,0 -26.44067,-12.02584 -26.44067,-26.86047l0,-107.4421z" id="svg_52" stroke-width="0"/>
    <path fill="#162e3d" d="m57.42176,-24.96164c0,14.35317 -11.8379,25.9887 -26.44069,25.9887m26.44069,-25.9887l0,0c0,14.35317 -11.8379,25.9887 -26.44069,25.9887c-14.60278,0 -26.44067,-11.6355 -26.44067,-25.9887m0,0l0,0c0,-14.35314 11.83789,-25.98868 26.44067,-25.98868c14.60279,0 26.44069,11.63554 26.44069,25.98868l0,103.95484c0,14.35314 -11.8379,25.98865 -26.44069,25.98865c-14.60278,0 -26.44067,-11.6355 -26.44067,-25.98865l0,-103.95484z" id="svg_53" stroke-width="0" stroke="#000"/>
    <path stroke="#000" stroke-width="0" id="svg_54" d="m62.41378,28.1516c0,1.53714 -13.97181,2.78325 -31.2069,2.78325m31.2069,-2.78325l0,0c0,1.53714 -13.97181,2.78325 -31.2069,2.78325c-17.23509,0 -31.20688,-1.2461 -31.20688,-2.78325m0,0l0,0c0,-1.53715 13.97179,-2.78325 31.20688,-2.78325c17.23509,0 31.2069,1.2461 31.2069,2.78325l0,11.13301c0,1.53715 -13.97181,2.78324 -31.2069,2.78324c-17.23509,0 -31.20688,-1.24609 -31.20688,-2.78324l0,-11.13301z" fill="#162e3d"/>
    <path stroke="#000" stroke-width="0" id="svg_55" d="m495.41614,-25.00846c0,14.35317 -11.8379,25.9887 -26.44069,25.9887m26.44069,-25.9887l0,0c0,14.35317 -11.8379,25.9887 -26.44069,25.9887c-14.60278,0 -26.44067,-11.6355 -26.44067,-25.9887m0,0l0,0c0,-14.35314 11.83789,-25.98868 26.44067,-25.98868c14.60279,0 26.44069,11.63554 26.44069,25.98868l0,103.95484c0,14.35314 -11.8379,25.98865 -26.44069,25.98865c-14.60278,0 -26.44067,-11.6355 -26.44067,-25.98865l0,-103.95484z" fill="#162e3d"/>
    <path fill="#162e3d" d="m500,28.10478c0,1.53714 -13.97181,2.78325 -31.2069,2.78325m31.2069,-2.78325l0,0c0,1.53714 -13.97181,2.78325 -31.2069,2.78325c-17.23509,0 -31.20688,-1.2461 -31.20688,-2.78325m0,0l0,0c0,-1.53715 13.97179,-2.78325 31.20688,-2.78325c17.23509,0 31.2069,1.2461 31.2069,2.78325l0,11.13301c0,1.53715 -13.97181,2.78324 -31.2069,2.78324c-17.23509,0 -31.20688,-1.24609 -31.20688,-2.78324l0,-11.13301z" id="svg_56" stroke-width="0" stroke="#000"/>
    <path transform="rotate(90 414.809 78.5844)" stroke="#000" fill="#162e3d" d="m441.25,24.86337c0,14.83466 -11.8379,26.86051 -26.44068,26.86051m26.44068,-26.86051l0,0c0,14.83466 -11.8379,26.86051 -26.44068,26.86051c-14.60278,0 -26.44067,-12.02583 -26.44067,-26.86051m0,0l0,0c0,-14.83464 11.83789,-26.86051 26.44067,-26.86051c14.60279,0 26.44068,12.02587 26.44068,26.86051l0,107.4421c0,14.83463 -11.8379,26.86047 -26.44068,26.86047c-14.60278,0 -26.44067,-12.02584 -26.44067,-26.86047l0,-107.4421z" id="svg_57" stroke-width="0"/>
    <path transform="rotate(90 203.333 78.5559)" stroke="#000" stroke-width="0" id="svg_58" d="m234.54022,72.98945c0,1.53714 -13.97181,2.78324 -31.2069,2.78324m31.2069,-2.78324l0,0c0,1.53714 -13.97181,2.78324 -31.2069,2.78324c-17.23509,0 -31.20688,-1.24609 -31.20688,-2.78324m0,0l0,0c0,-1.53715 13.97179,-2.78326 31.20688,-2.78326c17.23509,0 31.2069,1.24611 31.2069,2.78326l0,11.133c0,1.53715 -13.97181,2.78324 -31.2069,2.78324c-17.23509,0 -31.20688,-1.24609 -31.20688,-2.78324l0,-11.133z" fill="#162e3d"/>
    <path transform="rotate(90 179.167 78.7931)" stroke="#000" stroke-width="0" id="svg_59" d="m210.37356,74.65516c0,1.14266 -13.9718,2.06897 -31.2069,2.06897m31.2069,-2.06897l0,0c0,1.14266 -13.9718,2.06897 -31.2069,2.06897c-17.23509,0 -31.20689,-0.92631 -31.20689,-2.06897m0,0l0,0c0,-1.14266 13.9718,-2.06896 31.20689,-2.06896c17.23509,0 31.2069,0.92631 31.2069,2.06896l0,8.27586c0,1.14266 -13.9718,2.06896 -31.2069,2.06896c-17.23509,0 -31.20689,-0.9263 -31.20689,-2.06896l0,-8.27586z" fill="#162e3d"/>
    <path transform="rotate(90 422.508 78.643)" stroke="#000" stroke-width="0" id="svg_60" d="m453.71454,73.07649c0,1.53714 -13.97181,2.78324 -31.2069,2.78324m31.2069,-2.78324l0,0c0,1.53714 -13.97181,2.78324 -31.2069,2.78324c-17.23509,0 -31.20688,-1.24609 -31.20688,-2.78324m0,0l0,0c0,-1.53715 13.97179,-2.78326 31.20688,-2.78326c17.23509,0 31.2069,1.24611 31.2069,2.78326l0,11.133c0,1.53715 -13.97181,2.78324 -31.2069,2.78324c-17.23509,0 -31.20688,-1.24609 -31.20688,-2.78324l0,-11.133z" fill="#162e3d"/>
   </g>
   <g id="svg_50">
    <path transform="rotate(90 250 74.3293)" stroke="#000" fill="#2c4651" d="m276.44067,-49.94722c0,34.31805 -11.8379,62.13828 -26.44068,62.13828m26.44068,-62.13828l0,0c0,34.31805 -11.8379,62.13828 -26.44068,62.13828c-14.60278,0 -26.44067,-27.82019 -26.44067,-62.13828m0,0l0,0c0,-34.318 11.83789,-62.13828 26.44067,-62.13828c14.60279,0 26.44068,27.82028 26.44068,62.13828l0,248.55327c0,34.31798 -11.8379,62.13819 -26.44068,62.13819c-14.60278,0 -26.44067,-27.82021 -26.44067,-62.13819l0,-248.55327z" id="svg_33" stroke-width="0"/>
    <path transform="rotate(90 85.2571 74.3512)" stroke="#000" fill="#2c4651" d="m111.69775,20.63017c0,14.83465 -11.8379,26.86051 -26.44068,26.86051m26.44068,-26.86051l0,0c0,14.83465 -11.8379,26.86051 -26.44068,26.86051c-14.60278,0 -26.44067,-12.02583 -26.44067,-26.86051m0,0l0,0c0,-14.83464 11.83789,-26.86051 26.44067,-26.86051c14.60279,0 26.44068,12.02587 26.44068,26.86051l0,107.44209c0,14.83464 -11.8379,26.86047 -26.44068,26.86047c-14.60278,0 -26.44067,-12.02583 -26.44067,-26.86047l0,-107.44209z" id="svg_7" stroke-width="0"/>
    <path fill="#2c4651" d="m57.42176,-29.21695c0,14.35317 -11.8379,25.9887 -26.44069,25.9887m26.44069,-25.9887l0,0c0,14.35317 -11.8379,25.9887 -26.44069,25.9887c-14.60278,0 -26.44067,-11.6355 -26.44067,-25.9887m0,0l0,0c0,-14.35314 11.83789,-25.98868 26.44067,-25.98868c14.60279,0 26.44069,11.63554 26.44069,25.98868l0,103.95484c0,14.35314 -11.8379,25.98865 -26.44069,25.98865c-14.60278,0 -26.44067,-11.6355 -26.44067,-25.98865l0,-103.95484z" id="svg_5" stroke-width="0" stroke="#000"/>
    <path stroke="#000" stroke-width="0" id="svg_3" d="m62.41378,23.89629c0,1.53714 -13.97181,2.78325 -31.2069,2.78325m31.2069,-2.78325l0,0c0,1.53714 -13.97181,2.78325 -31.2069,2.78325c-17.23509,0 -31.20688,-1.2461 -31.20688,-2.78325m0,0l0,0c0,-1.53715 13.97179,-2.78325 31.20688,-2.78325c17.23509,0 31.2069,1.2461 31.2069,2.78325l0,11.13301c0,1.53715 -13.97181,2.78324 -31.2069,2.78324c-17.23509,0 -31.20688,-1.24609 -31.20688,-2.78324l0,-11.13301z" fill="#3e6a84"/>
    <path stroke="#000" stroke-width="0" id="svg_21" d="m495.41614,-29.26378c0,14.35317 -11.8379,25.9887 -26.44069,25.9887m26.44069,-25.9887l0,0c0,14.35317 -11.8379,25.9887 -26.44069,25.9887c-14.60278,0 -26.44067,-11.6355 -26.44067,-25.9887m0,0l0,0c0,-14.35314 11.83789,-25.98868 26.44067,-25.98868c14.60279,0 26.44069,11.63554 26.44069,25.98868l0,103.95484c0,14.35314 -11.8379,25.98865 -26.44069,25.98865c-14.60278,0 -26.44067,-11.6355 -26.44067,-25.98865l0,-103.95484z" fill="#2c4651"/>
    <path fill="#3e6a84" d="m500,23.84946c0,1.53714 -13.97181,2.78325 -31.2069,2.78325m31.2069,-2.78325l0,0c0,1.53714 -13.97181,2.78325 -31.2069,2.78325c-17.23509,0 -31.20688,-1.2461 -31.20688,-2.78325m0,0l0,0c0,-1.53715 13.97179,-2.78325 31.20688,-2.78325c17.23509,0 31.2069,1.2461 31.2069,2.78325l0,11.13301c0,1.53715 -13.97181,2.78324 -31.2069,2.78324c-17.23509,0 -31.20688,-1.24609 -31.20688,-2.78324l0,-11.13301z" id="svg_20" stroke-width="0" stroke="#000"/>
    <path transform="rotate(90 414.809 74.329)" stroke="#000" fill="#2c4651" d="m441.25,20.60805c0,14.83466 -11.8379,26.86051 -26.44068,26.86051m26.44068,-26.86051l0,0c0,14.83466 -11.8379,26.86051 -26.44068,26.86051c-14.60278,0 -26.44067,-12.02583 -26.44067,-26.86051m0,0l0,0c0,-14.83464 11.83789,-26.86051 26.44067,-26.86051c14.60279,0 26.44068,12.02587 26.44068,26.86051l0,107.4421c0,14.83463 -11.8379,26.86047 -26.44068,26.86047c-14.60278,0 -26.44067,-12.02584 -26.44067,-26.86047l0,-107.4421z" id="svg_30" stroke-width="0"/>
    <path transform="rotate(90 203.333 74.3006)" stroke="#000" stroke-width="0" id="svg_34" d="m234.54022,68.73413c0,1.53714 -13.97181,2.78324 -31.2069,2.78324m31.2069,-2.78324l0,0c0,1.53714 -13.97181,2.78324 -31.2069,2.78324c-17.23509,0 -31.20688,-1.24609 -31.20688,-2.78324m0,0l0,0c0,-1.53715 13.97179,-2.78326 31.20688,-2.78326c17.23509,0 31.2069,1.24611 31.2069,2.78326l0,11.133c0,1.53715 -13.97181,2.78324 -31.2069,2.78324c-17.23509,0 -31.20688,-1.24609 -31.20688,-2.78324l0,-11.133z" fill="#3e6a84"/>
    <path transform="rotate(90 179.167 74.5378)" stroke="#000" stroke-width="0" id="svg_35" d="m210.37356,70.39984c0,1.14266 -13.9718,2.06897 -31.2069,2.06897m31.2069,-2.06897l0,0c0,1.14266 -13.9718,2.06897 -31.2069,2.06897c-17.23509,0 -31.20689,-0.92631 -31.20689,-2.06897m0,0l0,0c0,-1.14266 13.9718,-2.06896 31.20689,-2.06896c17.23509,0 31.2069,0.92631 31.2069,2.06896l0,8.27586c0,1.14266 -13.9718,2.06896 -31.2069,2.06896c-17.23509,0 -31.20689,-0.9263 -31.20689,-2.06896l0,-8.27586z" fill="#3e6a84"/>
    <path transform="rotate(90 422.508 74.3876)" stroke="#000" stroke-width="0" id="svg_36" d="m453.71454,68.82117c0,1.53714 -13.97181,2.78324 -31.2069,2.78324m31.2069,-2.78324l0,0c0,1.53714 -13.97181,2.78324 -31.2069,2.78324c-17.23509,0 -31.20688,-1.24609 -31.20688,-2.78324m0,0l0,0c0,-1.53715 13.97179,-2.78326 31.20688,-2.78326c17.23509,0 31.2069,1.24611 31.2069,2.78326l0,11.133c0,1.53715 -13.97181,2.78324 -31.2069,2.78324c-17.23509,0 -31.20688,-1.24609 -31.20688,-2.78324l0,-11.133z" fill="#3e6a84"/>
   </g>
  </g>
 </g>
</svg>