<svg width="200.00000000000003" height="200.00000000000003" xmlns="http://www.w3.org/2000/svg">
 <g>
  <title>Layer 1</title>
  <path d="m71.9809,192.57419l0,-64.57419a56,56 0 0 1 56,-56l64.68576,0m-64.68576,120.57419l0,-49.57419a15,15 0 0 1 15,-15l49.68576,0m-120.68576,64.57419l56,0m64.68576,-120.57419l0,56" stroke-width="3.5" stroke="#d3fbfeff" fill="none" id="L_pipe"/>
  <path transform="rotate(180 100 206.563)" id="svg_4" d="m138.26087,87.53623c0,3.44177 -17.12998,6.23188 -38.26087,6.23188m38.26087,-6.23188l0,0c0,3.44177 -17.12998,6.23188 -38.26087,6.23188c-21.13089,0 -38.26086,-2.7901 -38.26086,-6.23188m0,0l0,0c0,-3.44177 17.12997,-6.23189 38.26086,-6.23189c21.13089,0 38.26087,2.79012 38.26087,6.23189l0,24.92755c0,3.44177 -17.12998,6.23187 -38.26087,6.23187c-21.13089,0 -38.26086,-2.7901 -38.26086,-6.23187l0,-24.92755z" stroke-width="0" fill="#00ff00"/>
  <g id="svg_2">
   <path transform="rotate(180 100 206.653)" id="svg_9" d="m138.26086,194.18937c0,3.44177 -17.12998,6.23189 -38.26087,6.23189m38.26087,-6.23189l0,0c0,3.44177 -17.12998,6.23189 -38.26087,6.23189c-21.13089,0 -38.26086,-2.7901 -38.26086,-6.23189m0,0l0,0c0,-3.44177 17.12997,-6.23188 38.26086,-6.23188c21.1309,0 38.26087,2.79011 38.26087,6.23188l0,24.92755c0,3.44177 -17.12998,6.23187 -38.26087,6.23187c-21.13089,0 -38.26086,-2.7901 -38.26086,-6.23187l0,-24.92755z" stroke-width="0" fill="#ffdc19"/>
   <path transform="rotate(90 206.037 100)" id="svg_10" d="m244.29804,87.53623c0,3.44177 -17.12998,6.23189 -38.26087,6.23189m38.26087,-6.23189l0,0c0,3.44177 -17.12998,6.23189 -38.26087,6.23189c-21.13089,0 -38.26086,-2.7901 -38.26086,-6.23189m0,0l0,0c0,-3.44177 17.12997,-6.23188 38.26086,-6.23188c21.1309,0 38.26087,2.79011 38.26087,6.23188l0,24.92755c0,3.44177 -17.12998,6.23187 -38.26087,6.23187c-21.13089,0 -38.26086,-2.7901 -38.26086,-6.23187l0,-24.92755z" stroke-width="0" fill="#ffdc19"/>
  </g>
 </g>

</svg>