<svg width="180" height="109.99999999999999" xmlns="http://www.w3.org/2000/svg">
 <g>
  <title>Layer 1</title>
  <g id="svg_45">
   <g id="svg_44">
    <path fill="#1c5463" d="m175.41614,-24.88541c0,14.35317 -11.8379,25.9887 -26.44069,25.9887m26.44069,-25.9887l0,0c0,14.35317 -11.8379,25.9887 -26.44069,25.9887c-14.60278,0 -26.44067,-11.6355 -26.44067,-25.9887m0,0l0,0c0,-14.35314 11.83789,-25.98868 26.44067,-25.98868c14.60279,0 26.44069,11.63554 26.44069,25.98868l0,103.95484c0,14.35314 -11.8379,25.98865 -26.44069,25.98865c-14.60278,0 -26.44067,-11.6355 -26.44067,-25.98865l0,-103.95484z" id="svg_38" stroke-width="0" stroke="#000"/>
    <path stroke="#000" stroke-width="0" id="svg_39" d="m180,28.22783c0,1.53714 -13.97181,2.78325 -31.2069,2.78325m31.2069,-2.78325l0,0c0,1.53714 -13.97181,2.78325 -31.2069,2.78325c-17.23509,0 -31.20688,-1.2461 -31.20688,-2.78325m0,0l0,0c0,-1.53715 13.97179,-2.78325 31.20688,-2.78325c17.23509,0 31.2069,1.2461 31.2069,2.78325l0,11.13301c0,1.53715 -13.97181,2.78324 -31.2069,2.78324c-17.23509,0 -31.20688,-1.24609 -31.20688,-2.78324l0,-11.13301z" fill="#1c5463"/>
    <g transform="rotate(180 63.8955 78.7928)" id="svg_43">
     <path transform="rotate(90 63.8949 78.7925)" stroke="#000" fill="#1c5463" d="m90.33556,4.65483c0,20.47256 -11.8379,37.06884 -26.44068,37.06884m26.44068,-37.06884l0,0c0,20.47256 -11.8379,37.06884 -26.44068,37.06884c-14.60278,0 -26.44067,-16.59625 -26.44067,-37.06884m0,0l0,0c0,-20.47254 11.83789,-37.06884 26.44067,-37.06884c14.60279,0 26.44068,16.5963 26.44068,37.06884l0,148.27544c0,20.47254 -11.8379,37.06879 -26.44068,37.06879c-14.60278,0 -26.44067,-16.59625 -26.44067,-37.06879l0,-148.27544z" id="svg_40" stroke-width="0"/>
     <path transform="rotate(90 47.1077 78.7928)" stroke="#000" stroke-width="0" id="svg_41" d="m78.3146,74.65483c0,1.14266 -13.9718,2.06897 -31.2069,2.06897m31.2069,-2.06897l0,0c0,1.14266 -13.9718,2.06897 -31.2069,2.06897c-17.23509,0 -31.20689,-0.92631 -31.20689,-2.06897m0,0l0,0c0,-1.14266 13.9718,-2.06896 31.20689,-2.06896c17.23509,0 31.2069,0.92631 31.2069,2.06896l0,8.27586c0,1.14266 -13.9718,2.06896 -31.2069,2.06896c-17.23509,0 -31.20689,-0.9263 -31.20689,-2.06896l0,-8.27586z" fill="#1c5463"/>
     <path transform="rotate(90 27.0622 78.7926)" stroke="#000" stroke-width="0" id="svg_42" d="m58.26904,73.22605c0,1.53714 -13.97181,2.78324 -31.2069,2.78324m31.2069,-2.78324l0,0c0,1.53714 -13.97181,2.78324 -31.2069,2.78324c-17.23509,0 -31.20688,-1.24609 -31.20688,-2.78324m0,0l0,0c0,-1.53715 13.97179,-2.78326 31.20688,-2.78326c17.23509,0 31.2069,1.24611 31.2069,2.78326l0,11.133c0,1.53715 -13.97181,2.78324 -31.2069,2.78324c-17.23509,0 -31.20688,-1.24609 -31.20688,-2.78324l0,-11.133z" fill="#1c5463"/>
    </g>
   </g>
   <g id="svg_37">
    <path fill="#58aeb6" d="m175.41614,-28.96704c0,14.35317 -11.8379,25.9887 -26.44069,25.9887m26.44069,-25.9887l0,0c0,14.35317 -11.8379,25.9887 -26.44069,25.9887c-14.60278,0 -26.44067,-11.6355 -26.44067,-25.9887m0,0l0,0c0,-14.35314 11.83789,-25.98868 26.44067,-25.98868c14.60279,0 26.44069,11.63554 26.44069,25.98868l0,103.95484c0,14.35314 -11.8379,25.98865 -26.44069,25.98865c-14.60278,0 -26.44067,-11.6355 -26.44067,-25.98865l0,-103.95484z" id="svg_8" stroke-width="0" stroke="#000"/>
    <path stroke="#000" stroke-width="0" id="svg_10" d="m180,24.1462c0,1.53714 -13.97181,2.78325 -31.2069,2.78325m31.2069,-2.78325l0,0c0,1.53714 -13.97181,2.78325 -31.2069,2.78325c-17.23509,0 -31.20688,-1.2461 -31.20688,-2.78325m0,0l0,0c0,-1.53715 13.97179,-2.78325 31.20688,-2.78325c17.23509,0 31.2069,1.2461 31.2069,2.78325l0,11.13301c0,1.53715 -13.97181,2.78324 -31.2069,2.78324c-17.23509,0 -31.20688,-1.24609 -31.20688,-2.78324l0,-11.13301z" fill="#286e87"/>
    <g transform="rotate(180 63.8955 74.7112)" id="svg_36">
     <path transform="rotate(90 63.8954 74.711)" stroke="#000" fill="#58aeb6" d="m90.33556,0.5732c0,20.47256 -11.8379,37.06884 -26.44068,37.06884m26.44068,-37.06884l0,0c0,20.47256 -11.8379,37.06884 -26.44068,37.06884c-14.60278,0 -26.44067,-16.59625 -26.44067,-37.06884m0,0l0,0c0,-20.47254 11.83789,-37.06884 26.44067,-37.06884c14.60279,0 26.44068,16.5963 26.44068,37.06884l0,148.27544c0,20.47254 -11.8379,37.06879 -26.44068,37.06879c-14.60278,0 -26.44067,-16.59625 -26.44067,-37.06879l0,-148.27544z" id="svg_7" stroke-width="0"/>
     <path transform="rotate(90 47.1077 74.7111)" stroke="#000" stroke-width="0" id="svg_1" d="m78.3146,70.5732c0,1.14266 -13.9718,2.06897 -31.2069,2.06897m31.2069,-2.06897l0,0c0,1.14266 -13.9718,2.06897 -31.2069,2.06897c-17.23509,0 -31.20689,-0.92631 -31.20689,-2.06897m0,0l0,0c0,-1.14266 13.9718,-2.06896 31.20689,-2.06896c17.23509,0 31.2069,0.92631 31.2069,2.06896l0,8.27586c0,1.14266 -13.9718,2.06896 -31.2069,2.06896c-17.23509,0 -31.20689,-0.9263 -31.20689,-2.06896l0,-8.27586z" fill="#286e87"/>
     <path transform="rotate(90 27.0616 74.7107)" stroke="#000" stroke-width="0" id="svg_2" d="m58.26904,69.14442c0,1.53714 -13.97181,2.78324 -31.2069,2.78324m31.2069,-2.78324l0,0c0,1.53714 -13.97181,2.78324 -31.2069,2.78324c-17.23509,0 -31.20688,-1.24609 -31.20688,-2.78324m0,0l0,0c0,-1.53715 13.97179,-2.78326 31.20688,-2.78326c17.23509,0 31.2069,1.24611 31.2069,2.78326l0,11.133c0,1.53715 -13.97181,2.78324 -31.2069,2.78324c-17.23509,0 -31.20688,-1.24609 -31.20688,-2.78324l0,-11.133z" fill="#286e87"/>
    </g>
   </g>
  </g>
 </g>

</svg>